G04 #@! TF.GenerationSoftware,KiCad,Pcbnew,(5.1.9)-1*
G04 #@! TF.CreationDate,2021-04-22T03:11:02+04:00*
G04 #@! TF.ProjectId,USB-C breakout,5553422d-4320-4627-9265-616b6f75742e,rev?*
G04 #@! TF.SameCoordinates,Original*
G04 #@! TF.FileFunction,Soldermask,Top*
G04 #@! TF.FilePolarity,Negative*
%FSLAX46Y46*%
G04 Gerber Fmt 4.6, Leading zero omitted, Abs format (unit mm)*
G04 Created by KiCad (PCBNEW (5.1.9)-1) date 2021-04-22 03:11:02*
%MOMM*%
%LPD*%
G01*
G04 APERTURE LIST*
%ADD10O,1.802000X1.802000*%
%ADD11O,1.102000X2.202000*%
%ADD12C,0.752000*%
%ADD13O,1.102000X1.702000*%
%ADD14C,0.100000*%
G04 APERTURE END LIST*
G36*
G01*
X116053500Y-65583500D02*
X117753500Y-65583500D01*
G75*
G02*
X117804500Y-65634500I0J-51000D01*
G01*
X117804500Y-67334500D01*
G75*
G02*
X117753500Y-67385500I-51000J0D01*
G01*
X116053500Y-67385500D01*
G75*
G02*
X116002500Y-67334500I0J51000D01*
G01*
X116002500Y-65634500D01*
G75*
G02*
X116053500Y-65583500I51000J0D01*
G01*
G37*
D10*
X114363500Y-66484500D03*
X111823500Y-66484500D03*
X109283500Y-66484500D03*
G36*
G01*
X118020250Y-61338000D02*
X117056750Y-61338000D01*
G75*
G02*
X116787500Y-61068750I0J269250D01*
G01*
X116787500Y-60530250D01*
G75*
G02*
X117056750Y-60261000I269250J0D01*
G01*
X118020250Y-60261000D01*
G75*
G02*
X118289500Y-60530250I0J-269250D01*
G01*
X118289500Y-61068750D01*
G75*
G02*
X118020250Y-61338000I-269250J0D01*
G01*
G37*
G36*
G01*
X118020250Y-63213000D02*
X117056750Y-63213000D01*
G75*
G02*
X116787500Y-62943750I0J269250D01*
G01*
X116787500Y-62405250D01*
G75*
G02*
X117056750Y-62136000I269250J0D01*
G01*
X118020250Y-62136000D01*
G75*
G02*
X118289500Y-62405250I0J-269250D01*
G01*
X118289500Y-62943750D01*
G75*
G02*
X118020250Y-63213000I-269250J0D01*
G01*
G37*
G36*
G01*
X114409000Y-60541750D02*
X114409000Y-61505250D01*
G75*
G02*
X114139750Y-61774500I-269250J0D01*
G01*
X113601250Y-61774500D01*
G75*
G02*
X113332000Y-61505250I0J269250D01*
G01*
X113332000Y-60541750D01*
G75*
G02*
X113601250Y-60272500I269250J0D01*
G01*
X114139750Y-60272500D01*
G75*
G02*
X114409000Y-60541750I0J-269250D01*
G01*
G37*
G36*
G01*
X116284000Y-60541750D02*
X116284000Y-61505250D01*
G75*
G02*
X116014750Y-61774500I-269250J0D01*
G01*
X115476250Y-61774500D01*
G75*
G02*
X115207000Y-61505250I0J269250D01*
G01*
X115207000Y-60541750D01*
G75*
G02*
X115476250Y-60272500I269250J0D01*
G01*
X116014750Y-60272500D01*
G75*
G02*
X116284000Y-60541750I0J-269250D01*
G01*
G37*
G36*
G01*
X110192500Y-56260500D02*
X110192500Y-57710500D01*
G75*
G02*
X110141500Y-57761500I-51000J0D01*
G01*
X109541500Y-57761500D01*
G75*
G02*
X109490500Y-57710500I0J51000D01*
G01*
X109490500Y-56260500D01*
G75*
G02*
X109541500Y-56209500I51000J0D01*
G01*
X110141500Y-56209500D01*
G75*
G02*
X110192500Y-56260500I0J-51000D01*
G01*
G37*
G36*
G01*
X110992500Y-56260500D02*
X110992500Y-57710500D01*
G75*
G02*
X110941500Y-57761500I-51000J0D01*
G01*
X110341500Y-57761500D01*
G75*
G02*
X110290500Y-57710500I0J51000D01*
G01*
X110290500Y-56260500D01*
G75*
G02*
X110341500Y-56209500I51000J0D01*
G01*
X110941500Y-56209500D01*
G75*
G02*
X110992500Y-56260500I0J-51000D01*
G01*
G37*
G36*
G01*
X115892500Y-56260500D02*
X115892500Y-57710500D01*
G75*
G02*
X115841500Y-57761500I-51000J0D01*
G01*
X115241500Y-57761500D01*
G75*
G02*
X115190500Y-57710500I0J51000D01*
G01*
X115190500Y-56260500D01*
G75*
G02*
X115241500Y-56209500I51000J0D01*
G01*
X115841500Y-56209500D01*
G75*
G02*
X115892500Y-56260500I0J-51000D01*
G01*
G37*
G36*
G01*
X116692500Y-56260500D02*
X116692500Y-57710500D01*
G75*
G02*
X116641500Y-57761500I-51000J0D01*
G01*
X116041500Y-57761500D01*
G75*
G02*
X115990500Y-57710500I0J51000D01*
G01*
X115990500Y-56260500D01*
G75*
G02*
X116041500Y-56209500I51000J0D01*
G01*
X116641500Y-56209500D01*
G75*
G02*
X116692500Y-56260500I0J-51000D01*
G01*
G37*
G36*
G01*
X116692500Y-56260500D02*
X116692500Y-57710500D01*
G75*
G02*
X116641500Y-57761500I-51000J0D01*
G01*
X116041500Y-57761500D01*
G75*
G02*
X115990500Y-57710500I0J51000D01*
G01*
X115990500Y-56260500D01*
G75*
G02*
X116041500Y-56209500I51000J0D01*
G01*
X116641500Y-56209500D01*
G75*
G02*
X116692500Y-56260500I0J-51000D01*
G01*
G37*
G36*
G01*
X115892500Y-56260500D02*
X115892500Y-57710500D01*
G75*
G02*
X115841500Y-57761500I-51000J0D01*
G01*
X115241500Y-57761500D01*
G75*
G02*
X115190500Y-57710500I0J51000D01*
G01*
X115190500Y-56260500D01*
G75*
G02*
X115241500Y-56209500I51000J0D01*
G01*
X115841500Y-56209500D01*
G75*
G02*
X115892500Y-56260500I0J-51000D01*
G01*
G37*
G36*
G01*
X110992500Y-56260500D02*
X110992500Y-57710500D01*
G75*
G02*
X110941500Y-57761500I-51000J0D01*
G01*
X110341500Y-57761500D01*
G75*
G02*
X110290500Y-57710500I0J51000D01*
G01*
X110290500Y-56260500D01*
G75*
G02*
X110341500Y-56209500I51000J0D01*
G01*
X110941500Y-56209500D01*
G75*
G02*
X110992500Y-56260500I0J-51000D01*
G01*
G37*
G36*
G01*
X110192500Y-56260500D02*
X110192500Y-57710500D01*
G75*
G02*
X110141500Y-57761500I-51000J0D01*
G01*
X109541500Y-57761500D01*
G75*
G02*
X109490500Y-57710500I0J51000D01*
G01*
X109490500Y-56260500D01*
G75*
G02*
X109541500Y-56209500I51000J0D01*
G01*
X110141500Y-56209500D01*
G75*
G02*
X110192500Y-56260500I0J-51000D01*
G01*
G37*
G36*
G01*
X115042500Y-56260500D02*
X115042500Y-57710500D01*
G75*
G02*
X114991500Y-57761500I-51000J0D01*
G01*
X114691500Y-57761500D01*
G75*
G02*
X114640500Y-57710500I0J51000D01*
G01*
X114640500Y-56260500D01*
G75*
G02*
X114691500Y-56209500I51000J0D01*
G01*
X114991500Y-56209500D01*
G75*
G02*
X115042500Y-56260500I0J-51000D01*
G01*
G37*
G36*
G01*
X114542500Y-56260500D02*
X114542500Y-57710500D01*
G75*
G02*
X114491500Y-57761500I-51000J0D01*
G01*
X114191500Y-57761500D01*
G75*
G02*
X114140500Y-57710500I0J51000D01*
G01*
X114140500Y-56260500D01*
G75*
G02*
X114191500Y-56209500I51000J0D01*
G01*
X114491500Y-56209500D01*
G75*
G02*
X114542500Y-56260500I0J-51000D01*
G01*
G37*
G36*
G01*
X114042500Y-56260500D02*
X114042500Y-57710500D01*
G75*
G02*
X113991500Y-57761500I-51000J0D01*
G01*
X113691500Y-57761500D01*
G75*
G02*
X113640500Y-57710500I0J51000D01*
G01*
X113640500Y-56260500D01*
G75*
G02*
X113691500Y-56209500I51000J0D01*
G01*
X113991500Y-56209500D01*
G75*
G02*
X114042500Y-56260500I0J-51000D01*
G01*
G37*
G36*
G01*
X113042500Y-56260500D02*
X113042500Y-57710500D01*
G75*
G02*
X112991500Y-57761500I-51000J0D01*
G01*
X112691500Y-57761500D01*
G75*
G02*
X112640500Y-57710500I0J51000D01*
G01*
X112640500Y-56260500D01*
G75*
G02*
X112691500Y-56209500I51000J0D01*
G01*
X112991500Y-56209500D01*
G75*
G02*
X113042500Y-56260500I0J-51000D01*
G01*
G37*
G36*
G01*
X112542500Y-56260500D02*
X112542500Y-57710500D01*
G75*
G02*
X112491500Y-57761500I-51000J0D01*
G01*
X112191500Y-57761500D01*
G75*
G02*
X112140500Y-57710500I0J51000D01*
G01*
X112140500Y-56260500D01*
G75*
G02*
X112191500Y-56209500I51000J0D01*
G01*
X112491500Y-56209500D01*
G75*
G02*
X112542500Y-56260500I0J-51000D01*
G01*
G37*
G36*
G01*
X112042500Y-56260500D02*
X112042500Y-57710500D01*
G75*
G02*
X111991500Y-57761500I-51000J0D01*
G01*
X111691500Y-57761500D01*
G75*
G02*
X111640500Y-57710500I0J51000D01*
G01*
X111640500Y-56260500D01*
G75*
G02*
X111691500Y-56209500I51000J0D01*
G01*
X111991500Y-56209500D01*
G75*
G02*
X112042500Y-56260500I0J-51000D01*
G01*
G37*
G36*
G01*
X111542500Y-56260500D02*
X111542500Y-57710500D01*
G75*
G02*
X111491500Y-57761500I-51000J0D01*
G01*
X111191500Y-57761500D01*
G75*
G02*
X111140500Y-57710500I0J51000D01*
G01*
X111140500Y-56260500D01*
G75*
G02*
X111191500Y-56209500I51000J0D01*
G01*
X111491500Y-56209500D01*
G75*
G02*
X111542500Y-56260500I0J-51000D01*
G01*
G37*
G36*
G01*
X113542500Y-56260500D02*
X113542500Y-57710500D01*
G75*
G02*
X113491500Y-57761500I-51000J0D01*
G01*
X113191500Y-57761500D01*
G75*
G02*
X113140500Y-57710500I0J51000D01*
G01*
X113140500Y-56260500D01*
G75*
G02*
X113191500Y-56209500I51000J0D01*
G01*
X113491500Y-56209500D01*
G75*
G02*
X113542500Y-56260500I0J-51000D01*
G01*
G37*
D11*
X108771500Y-56070500D03*
X117411500Y-56070500D03*
D12*
X115981500Y-55540500D03*
D13*
X117411500Y-51890500D03*
D12*
X110201500Y-55540500D03*
D13*
X108771500Y-51890500D03*
D14*
G36*
X115192232Y-56208500D02*
G01*
X115192500Y-56209500D01*
X115192500Y-57761500D01*
X115191500Y-57763232D01*
X115190500Y-57763500D01*
X115042500Y-57763500D01*
X115040768Y-57762500D01*
X115040500Y-57761500D01*
X115040500Y-56209500D01*
X115041500Y-56207768D01*
X115042500Y-56207500D01*
X115190500Y-56207500D01*
X115192232Y-56208500D01*
G37*
G36*
X115992232Y-56208500D02*
G01*
X115992500Y-56209500D01*
X115992500Y-57761500D01*
X115991500Y-57763232D01*
X115990500Y-57763500D01*
X115892500Y-57763500D01*
X115890768Y-57762500D01*
X115890500Y-57761500D01*
X115890500Y-56209500D01*
X115891500Y-56207768D01*
X115892500Y-56207500D01*
X115990500Y-56207500D01*
X115992232Y-56208500D01*
G37*
G36*
X114642232Y-56208500D02*
G01*
X114642500Y-56209500D01*
X114642500Y-57761500D01*
X114641500Y-57763232D01*
X114640500Y-57763500D01*
X114542500Y-57763500D01*
X114540768Y-57762500D01*
X114540500Y-57761500D01*
X114540500Y-56209500D01*
X114541500Y-56207768D01*
X114542500Y-56207500D01*
X114640500Y-56207500D01*
X114642232Y-56208500D01*
G37*
G36*
X114142232Y-56208500D02*
G01*
X114142500Y-56209500D01*
X114142500Y-57761500D01*
X114141500Y-57763232D01*
X114140500Y-57763500D01*
X114042500Y-57763500D01*
X114040768Y-57762500D01*
X114040500Y-57761500D01*
X114040500Y-56209500D01*
X114041500Y-56207768D01*
X114042500Y-56207500D01*
X114140500Y-56207500D01*
X114142232Y-56208500D01*
G37*
G36*
X113642232Y-56208500D02*
G01*
X113642500Y-56209500D01*
X113642500Y-57761500D01*
X113641500Y-57763232D01*
X113640500Y-57763500D01*
X113542500Y-57763500D01*
X113540768Y-57762500D01*
X113540500Y-57761500D01*
X113540500Y-56209500D01*
X113541500Y-56207768D01*
X113542500Y-56207500D01*
X113640500Y-56207500D01*
X113642232Y-56208500D01*
G37*
G36*
X112642232Y-56208500D02*
G01*
X112642500Y-56209500D01*
X112642500Y-57761500D01*
X112641500Y-57763232D01*
X112640500Y-57763500D01*
X112542500Y-57763500D01*
X112540768Y-57762500D01*
X112540500Y-57761500D01*
X112540500Y-56209500D01*
X112541500Y-56207768D01*
X112542500Y-56207500D01*
X112640500Y-56207500D01*
X112642232Y-56208500D01*
G37*
G36*
X112142232Y-56208500D02*
G01*
X112142500Y-56209500D01*
X112142500Y-57761500D01*
X112141500Y-57763232D01*
X112140500Y-57763500D01*
X112042500Y-57763500D01*
X112040768Y-57762500D01*
X112040500Y-57761500D01*
X112040500Y-56209500D01*
X112041500Y-56207768D01*
X112042500Y-56207500D01*
X112140500Y-56207500D01*
X112142232Y-56208500D01*
G37*
G36*
X111642232Y-56208500D02*
G01*
X111642500Y-56209500D01*
X111642500Y-57761500D01*
X111641500Y-57763232D01*
X111640500Y-57763500D01*
X111542500Y-57763500D01*
X111540768Y-57762500D01*
X111540500Y-57761500D01*
X111540500Y-56209500D01*
X111541500Y-56207768D01*
X111542500Y-56207500D01*
X111640500Y-56207500D01*
X111642232Y-56208500D01*
G37*
G36*
X111142232Y-56208500D02*
G01*
X111142500Y-56209500D01*
X111142500Y-57761500D01*
X111141500Y-57763232D01*
X111140500Y-57763500D01*
X110992500Y-57763500D01*
X110990768Y-57762500D01*
X110990500Y-57761500D01*
X110990500Y-56209500D01*
X110991500Y-56207768D01*
X110992500Y-56207500D01*
X111140500Y-56207500D01*
X111142232Y-56208500D01*
G37*
G36*
X110292232Y-56208500D02*
G01*
X110292500Y-56209500D01*
X110292500Y-57761500D01*
X110291500Y-57763232D01*
X110290500Y-57763500D01*
X110192500Y-57763500D01*
X110190768Y-57762500D01*
X110190500Y-57761500D01*
X110190500Y-56209500D01*
X110191500Y-56207768D01*
X110192500Y-56207500D01*
X110290500Y-56207500D01*
X110292232Y-56208500D01*
G37*
G36*
X113142232Y-56208500D02*
G01*
X113142500Y-56209500D01*
X113142500Y-57761500D01*
X113141500Y-57763232D01*
X113140500Y-57763500D01*
X113042500Y-57763500D01*
X113040768Y-57762500D01*
X113040500Y-57761500D01*
X113040500Y-56209500D01*
X113041500Y-56207768D01*
X113042500Y-56207500D01*
X113140500Y-56207500D01*
X113142232Y-56208500D01*
G37*
G36*
X116861665Y-56082875D02*
G01*
X116862500Y-56084501D01*
X116862500Y-56620406D01*
X116873057Y-56727599D01*
X116904299Y-56830589D01*
X116926091Y-56871359D01*
X116926025Y-56873358D01*
X116924262Y-56874301D01*
X116922664Y-56873413D01*
X116912570Y-56858306D01*
X116895523Y-56841259D01*
X116875476Y-56827865D01*
X116853202Y-56818638D01*
X116829552Y-56813934D01*
X116805446Y-56813934D01*
X116781796Y-56818638D01*
X116759522Y-56827865D01*
X116739474Y-56841260D01*
X116722427Y-56858307D01*
X116709033Y-56878354D01*
X116699823Y-56900585D01*
X116694478Y-56936624D01*
X116693235Y-56938191D01*
X116691257Y-56937898D01*
X116690500Y-56936331D01*
X116690500Y-56209500D01*
X116691500Y-56207768D01*
X116692500Y-56207500D01*
X116735407Y-56207500D01*
X116759492Y-56205128D01*
X116782567Y-56198128D01*
X116803831Y-56186763D01*
X116822468Y-56171468D01*
X116837763Y-56152831D01*
X116849128Y-56131567D01*
X116856128Y-56108492D01*
X116858510Y-56084305D01*
X116859675Y-56082679D01*
X116861665Y-56082875D01*
G37*
G36*
X109324490Y-56084305D02*
G01*
X109326872Y-56108492D01*
X109333872Y-56131567D01*
X109345237Y-56152831D01*
X109360532Y-56171468D01*
X109379169Y-56186763D01*
X109400433Y-56198128D01*
X109423508Y-56205128D01*
X109447593Y-56207500D01*
X109490500Y-56207500D01*
X109492232Y-56208500D01*
X109492500Y-56209500D01*
X109492500Y-56936331D01*
X109491500Y-56938063D01*
X109489500Y-56938063D01*
X109488510Y-56936527D01*
X109486128Y-56912341D01*
X109479128Y-56889266D01*
X109467763Y-56868002D01*
X109452468Y-56849365D01*
X109433831Y-56834070D01*
X109412567Y-56822705D01*
X109389492Y-56815705D01*
X109365501Y-56813342D01*
X109341510Y-56815705D01*
X109318435Y-56822705D01*
X109297171Y-56834070D01*
X109278570Y-56849335D01*
X109259310Y-56875306D01*
X109257475Y-56876102D01*
X109255869Y-56874911D01*
X109255940Y-56873172D01*
X109278701Y-56830590D01*
X109309943Y-56727600D01*
X109320500Y-56620406D01*
X109320500Y-56084501D01*
X109321500Y-56082769D01*
X109323500Y-56082769D01*
X109324490Y-56084305D01*
G37*
M02*
