G04 #@! TF.GenerationSoftware,KiCad,Pcbnew,(5.1.9)-1*
G04 #@! TF.CreationDate,2021-04-22T03:11:02+04:00*
G04 #@! TF.ProjectId,USB-C breakout,5553422d-4320-4627-9265-616b6f75742e,rev?*
G04 #@! TF.SameCoordinates,Original*
G04 #@! TF.FileFunction,Legend,Bot*
G04 #@! TF.FilePolarity,Positive*
%FSLAX46Y46*%
G04 Gerber Fmt 4.6, Leading zero omitted, Abs format (unit mm)*
G04 Created by KiCad (PCBNEW (5.1.9)-1) date 2021-04-22 03:11:02*
%MOMM*%
%LPD*%
G01*
G04 APERTURE LIST*
%ADD10C,0.010000*%
%ADD11C,0.150000*%
G04 APERTURE END LIST*
D10*
G36*
X112544186Y-51518931D02*
G01*
X112460365Y-51963555D01*
X112151080Y-52091053D01*
X111841794Y-52218551D01*
X111470754Y-51966246D01*
X111366843Y-51895996D01*
X111272913Y-51833272D01*
X111193348Y-51780938D01*
X111132530Y-51741857D01*
X111094843Y-51718893D01*
X111084579Y-51713942D01*
X111066090Y-51726676D01*
X111026580Y-51761882D01*
X110970478Y-51815062D01*
X110902213Y-51881718D01*
X110826214Y-51957354D01*
X110746908Y-52037472D01*
X110668725Y-52117574D01*
X110596093Y-52193164D01*
X110533441Y-52259745D01*
X110485197Y-52312818D01*
X110455790Y-52347887D01*
X110448759Y-52359623D01*
X110458877Y-52381260D01*
X110487241Y-52428662D01*
X110530871Y-52497193D01*
X110586782Y-52582215D01*
X110651994Y-52679093D01*
X110689781Y-52734350D01*
X110758657Y-52835248D01*
X110819860Y-52926299D01*
X110870422Y-53002970D01*
X110907372Y-53060728D01*
X110927742Y-53095043D01*
X110930803Y-53102254D01*
X110923864Y-53122748D01*
X110904949Y-53170513D01*
X110876913Y-53238832D01*
X110842609Y-53320989D01*
X110804891Y-53410270D01*
X110766613Y-53499958D01*
X110730630Y-53583338D01*
X110699794Y-53653694D01*
X110676961Y-53704310D01*
X110664983Y-53728471D01*
X110664276Y-53729422D01*
X110645469Y-53734036D01*
X110595382Y-53744328D01*
X110519207Y-53759287D01*
X110422135Y-53777901D01*
X110309357Y-53799159D01*
X110243558Y-53811418D01*
X110123050Y-53834362D01*
X110014203Y-53856195D01*
X109922524Y-53875722D01*
X109853519Y-53891748D01*
X109812696Y-53903079D01*
X109804489Y-53906674D01*
X109796452Y-53931006D01*
X109789967Y-53985959D01*
X109785030Y-54065108D01*
X109781636Y-54162026D01*
X109779782Y-54270287D01*
X109779462Y-54383465D01*
X109780673Y-54495135D01*
X109783410Y-54598868D01*
X109787669Y-54688241D01*
X109793445Y-54756826D01*
X109800733Y-54798197D01*
X109805105Y-54806810D01*
X109831236Y-54817133D01*
X109886607Y-54831892D01*
X109963893Y-54849352D01*
X110055770Y-54867780D01*
X110087842Y-54873741D01*
X110242476Y-54902066D01*
X110364625Y-54924876D01*
X110458327Y-54943080D01*
X110527616Y-54957583D01*
X110576529Y-54969292D01*
X110609103Y-54979115D01*
X110629372Y-54987956D01*
X110641374Y-54996724D01*
X110643053Y-54998457D01*
X110659816Y-55026371D01*
X110685386Y-55080695D01*
X110717212Y-55154777D01*
X110752740Y-55241965D01*
X110789417Y-55335608D01*
X110824689Y-55429052D01*
X110856004Y-55515647D01*
X110880807Y-55588740D01*
X110896546Y-55641678D01*
X110900668Y-55667811D01*
X110900324Y-55668726D01*
X110886359Y-55690086D01*
X110854678Y-55737084D01*
X110808609Y-55804827D01*
X110751482Y-55888423D01*
X110686627Y-55982982D01*
X110668157Y-56009854D01*
X110602301Y-56107275D01*
X110544350Y-56196163D01*
X110497462Y-56271412D01*
X110464793Y-56327920D01*
X110449500Y-56360581D01*
X110448759Y-56364593D01*
X110461608Y-56385684D01*
X110497112Y-56427464D01*
X110550707Y-56485445D01*
X110617829Y-56555135D01*
X110693913Y-56632045D01*
X110774396Y-56711683D01*
X110854713Y-56789561D01*
X110930301Y-56861186D01*
X110996595Y-56922070D01*
X111049031Y-56967721D01*
X111083045Y-56993650D01*
X111092455Y-56997883D01*
X111114357Y-56987912D01*
X111159200Y-56961020D01*
X111219679Y-56921736D01*
X111266211Y-56890117D01*
X111350525Y-56832098D01*
X111450374Y-56763784D01*
X111550527Y-56695579D01*
X111604373Y-56659075D01*
X111786629Y-56535800D01*
X111939619Y-56618520D01*
X112009318Y-56654759D01*
X112068586Y-56682926D01*
X112108689Y-56698991D01*
X112118897Y-56701226D01*
X112131171Y-56684722D01*
X112155387Y-56638082D01*
X112189737Y-56565609D01*
X112232412Y-56471606D01*
X112281606Y-56360374D01*
X112335510Y-56236215D01*
X112392316Y-56103432D01*
X112450218Y-55966327D01*
X112507407Y-55829202D01*
X112562076Y-55696358D01*
X112612416Y-55572098D01*
X112656620Y-55460725D01*
X112692881Y-55366539D01*
X112719391Y-55293844D01*
X112734342Y-55246941D01*
X112736746Y-55230833D01*
X112717689Y-55210286D01*
X112675964Y-55176933D01*
X112620294Y-55137702D01*
X112615622Y-55134599D01*
X112471736Y-55019423D01*
X112355717Y-54885053D01*
X112268570Y-54735784D01*
X112211301Y-54575913D01*
X112184914Y-54409737D01*
X112190415Y-54241552D01*
X112228810Y-54075655D01*
X112301105Y-53916342D01*
X112322374Y-53881487D01*
X112433004Y-53740737D01*
X112563698Y-53627714D01*
X112709936Y-53543003D01*
X112867192Y-53487194D01*
X113030943Y-53460874D01*
X113196667Y-53464630D01*
X113359838Y-53499050D01*
X113515935Y-53564723D01*
X113660433Y-53662235D01*
X113705131Y-53701813D01*
X113818888Y-53825703D01*
X113901782Y-53956124D01*
X113958644Y-54102315D01*
X113990313Y-54247088D01*
X113998131Y-54409860D01*
X113972062Y-54573440D01*
X113914755Y-54732298D01*
X113828856Y-54880906D01*
X113717014Y-55013735D01*
X113581877Y-55125256D01*
X113564117Y-55137011D01*
X113507850Y-55175508D01*
X113465077Y-55208863D01*
X113444628Y-55230160D01*
X113444331Y-55230833D01*
X113448721Y-55253871D01*
X113466124Y-55306157D01*
X113494732Y-55383390D01*
X113532735Y-55481268D01*
X113578326Y-55595491D01*
X113629697Y-55721758D01*
X113685038Y-55855767D01*
X113742542Y-55993218D01*
X113800399Y-56129808D01*
X113856802Y-56261237D01*
X113909942Y-56383205D01*
X113958010Y-56491409D01*
X113999199Y-56581549D01*
X114031699Y-56649323D01*
X114053703Y-56690430D01*
X114062564Y-56701226D01*
X114089640Y-56692819D01*
X114140303Y-56670272D01*
X114205817Y-56637613D01*
X114241841Y-56618520D01*
X114394832Y-56535800D01*
X114577088Y-56659075D01*
X114670125Y-56722228D01*
X114771985Y-56791727D01*
X114867438Y-56857165D01*
X114915250Y-56890117D01*
X114982495Y-56935273D01*
X115039436Y-56971057D01*
X115078646Y-56992938D01*
X115091381Y-56997563D01*
X115109917Y-56985085D01*
X115150941Y-56950252D01*
X115210475Y-56896678D01*
X115284542Y-56827983D01*
X115369165Y-56747781D01*
X115422685Y-56696286D01*
X115516319Y-56604286D01*
X115597241Y-56521999D01*
X115662177Y-56452945D01*
X115707858Y-56400644D01*
X115731011Y-56368616D01*
X115733232Y-56362116D01*
X115722924Y-56337394D01*
X115694439Y-56287405D01*
X115650937Y-56217212D01*
X115595577Y-56131875D01*
X115531520Y-56036456D01*
X115513303Y-56009854D01*
X115446927Y-55913167D01*
X115387378Y-55826117D01*
X115337984Y-55753595D01*
X115302075Y-55700493D01*
X115282981Y-55671703D01*
X115281136Y-55668726D01*
X115283895Y-55645782D01*
X115298538Y-55595336D01*
X115322513Y-55524041D01*
X115353266Y-55438547D01*
X115388244Y-55345507D01*
X115424893Y-55251574D01*
X115460661Y-55163399D01*
X115492994Y-55087634D01*
X115519338Y-55030931D01*
X115537142Y-54999943D01*
X115538407Y-54998457D01*
X115549294Y-54989601D01*
X115567682Y-54980843D01*
X115597606Y-54971277D01*
X115643103Y-54959996D01*
X115708209Y-54946093D01*
X115796961Y-54928663D01*
X115913393Y-54906798D01*
X116061542Y-54879591D01*
X116093618Y-54873741D01*
X116188686Y-54855374D01*
X116271565Y-54837405D01*
X116334930Y-54821569D01*
X116371458Y-54809600D01*
X116376356Y-54806810D01*
X116384427Y-54782072D01*
X116390987Y-54726790D01*
X116396033Y-54647389D01*
X116399559Y-54550296D01*
X116401561Y-54441938D01*
X116402036Y-54328740D01*
X116400977Y-54217128D01*
X116398382Y-54113529D01*
X116394246Y-54024368D01*
X116388563Y-53956072D01*
X116381331Y-53915066D01*
X116376971Y-53906674D01*
X116352698Y-53898208D01*
X116297426Y-53884435D01*
X116216662Y-53866550D01*
X116115912Y-53845748D01*
X116000683Y-53823223D01*
X115937902Y-53811418D01*
X115818787Y-53789151D01*
X115712565Y-53768979D01*
X115624427Y-53751915D01*
X115559566Y-53738969D01*
X115523174Y-53731155D01*
X115517184Y-53729422D01*
X115507061Y-53709890D01*
X115485662Y-53662843D01*
X115455839Y-53595003D01*
X115420445Y-53513091D01*
X115382332Y-53423828D01*
X115344353Y-53333935D01*
X115309360Y-53250135D01*
X115280206Y-53179147D01*
X115259743Y-53127694D01*
X115250823Y-53102497D01*
X115250657Y-53101396D01*
X115260769Y-53081519D01*
X115289117Y-53035777D01*
X115332723Y-52968717D01*
X115388606Y-52884884D01*
X115453787Y-52788826D01*
X115491679Y-52733650D01*
X115560725Y-52632481D01*
X115622050Y-52540630D01*
X115672663Y-52462744D01*
X115709571Y-52403469D01*
X115729782Y-52367451D01*
X115732701Y-52359377D01*
X115720153Y-52340584D01*
X115685463Y-52300457D01*
X115633063Y-52243493D01*
X115567384Y-52174185D01*
X115492856Y-52097031D01*
X115413913Y-52016525D01*
X115334983Y-51937163D01*
X115260500Y-51863440D01*
X115194894Y-51799852D01*
X115142596Y-51750894D01*
X115108039Y-51721061D01*
X115096478Y-51713942D01*
X115077654Y-51723953D01*
X115032631Y-51752078D01*
X114965787Y-51795454D01*
X114881499Y-51851218D01*
X114784144Y-51916506D01*
X114710707Y-51966246D01*
X114339667Y-52218551D01*
X113721095Y-51963555D01*
X113637275Y-51518931D01*
X113553454Y-51074307D01*
X112628006Y-51074307D01*
X112544186Y-51518931D01*
G37*
X112544186Y-51518931D02*
X112460365Y-51963555D01*
X112151080Y-52091053D01*
X111841794Y-52218551D01*
X111470754Y-51966246D01*
X111366843Y-51895996D01*
X111272913Y-51833272D01*
X111193348Y-51780938D01*
X111132530Y-51741857D01*
X111094843Y-51718893D01*
X111084579Y-51713942D01*
X111066090Y-51726676D01*
X111026580Y-51761882D01*
X110970478Y-51815062D01*
X110902213Y-51881718D01*
X110826214Y-51957354D01*
X110746908Y-52037472D01*
X110668725Y-52117574D01*
X110596093Y-52193164D01*
X110533441Y-52259745D01*
X110485197Y-52312818D01*
X110455790Y-52347887D01*
X110448759Y-52359623D01*
X110458877Y-52381260D01*
X110487241Y-52428662D01*
X110530871Y-52497193D01*
X110586782Y-52582215D01*
X110651994Y-52679093D01*
X110689781Y-52734350D01*
X110758657Y-52835248D01*
X110819860Y-52926299D01*
X110870422Y-53002970D01*
X110907372Y-53060728D01*
X110927742Y-53095043D01*
X110930803Y-53102254D01*
X110923864Y-53122748D01*
X110904949Y-53170513D01*
X110876913Y-53238832D01*
X110842609Y-53320989D01*
X110804891Y-53410270D01*
X110766613Y-53499958D01*
X110730630Y-53583338D01*
X110699794Y-53653694D01*
X110676961Y-53704310D01*
X110664983Y-53728471D01*
X110664276Y-53729422D01*
X110645469Y-53734036D01*
X110595382Y-53744328D01*
X110519207Y-53759287D01*
X110422135Y-53777901D01*
X110309357Y-53799159D01*
X110243558Y-53811418D01*
X110123050Y-53834362D01*
X110014203Y-53856195D01*
X109922524Y-53875722D01*
X109853519Y-53891748D01*
X109812696Y-53903079D01*
X109804489Y-53906674D01*
X109796452Y-53931006D01*
X109789967Y-53985959D01*
X109785030Y-54065108D01*
X109781636Y-54162026D01*
X109779782Y-54270287D01*
X109779462Y-54383465D01*
X109780673Y-54495135D01*
X109783410Y-54598868D01*
X109787669Y-54688241D01*
X109793445Y-54756826D01*
X109800733Y-54798197D01*
X109805105Y-54806810D01*
X109831236Y-54817133D01*
X109886607Y-54831892D01*
X109963893Y-54849352D01*
X110055770Y-54867780D01*
X110087842Y-54873741D01*
X110242476Y-54902066D01*
X110364625Y-54924876D01*
X110458327Y-54943080D01*
X110527616Y-54957583D01*
X110576529Y-54969292D01*
X110609103Y-54979115D01*
X110629372Y-54987956D01*
X110641374Y-54996724D01*
X110643053Y-54998457D01*
X110659816Y-55026371D01*
X110685386Y-55080695D01*
X110717212Y-55154777D01*
X110752740Y-55241965D01*
X110789417Y-55335608D01*
X110824689Y-55429052D01*
X110856004Y-55515647D01*
X110880807Y-55588740D01*
X110896546Y-55641678D01*
X110900668Y-55667811D01*
X110900324Y-55668726D01*
X110886359Y-55690086D01*
X110854678Y-55737084D01*
X110808609Y-55804827D01*
X110751482Y-55888423D01*
X110686627Y-55982982D01*
X110668157Y-56009854D01*
X110602301Y-56107275D01*
X110544350Y-56196163D01*
X110497462Y-56271412D01*
X110464793Y-56327920D01*
X110449500Y-56360581D01*
X110448759Y-56364593D01*
X110461608Y-56385684D01*
X110497112Y-56427464D01*
X110550707Y-56485445D01*
X110617829Y-56555135D01*
X110693913Y-56632045D01*
X110774396Y-56711683D01*
X110854713Y-56789561D01*
X110930301Y-56861186D01*
X110996595Y-56922070D01*
X111049031Y-56967721D01*
X111083045Y-56993650D01*
X111092455Y-56997883D01*
X111114357Y-56987912D01*
X111159200Y-56961020D01*
X111219679Y-56921736D01*
X111266211Y-56890117D01*
X111350525Y-56832098D01*
X111450374Y-56763784D01*
X111550527Y-56695579D01*
X111604373Y-56659075D01*
X111786629Y-56535800D01*
X111939619Y-56618520D01*
X112009318Y-56654759D01*
X112068586Y-56682926D01*
X112108689Y-56698991D01*
X112118897Y-56701226D01*
X112131171Y-56684722D01*
X112155387Y-56638082D01*
X112189737Y-56565609D01*
X112232412Y-56471606D01*
X112281606Y-56360374D01*
X112335510Y-56236215D01*
X112392316Y-56103432D01*
X112450218Y-55966327D01*
X112507407Y-55829202D01*
X112562076Y-55696358D01*
X112612416Y-55572098D01*
X112656620Y-55460725D01*
X112692881Y-55366539D01*
X112719391Y-55293844D01*
X112734342Y-55246941D01*
X112736746Y-55230833D01*
X112717689Y-55210286D01*
X112675964Y-55176933D01*
X112620294Y-55137702D01*
X112615622Y-55134599D01*
X112471736Y-55019423D01*
X112355717Y-54885053D01*
X112268570Y-54735784D01*
X112211301Y-54575913D01*
X112184914Y-54409737D01*
X112190415Y-54241552D01*
X112228810Y-54075655D01*
X112301105Y-53916342D01*
X112322374Y-53881487D01*
X112433004Y-53740737D01*
X112563698Y-53627714D01*
X112709936Y-53543003D01*
X112867192Y-53487194D01*
X113030943Y-53460874D01*
X113196667Y-53464630D01*
X113359838Y-53499050D01*
X113515935Y-53564723D01*
X113660433Y-53662235D01*
X113705131Y-53701813D01*
X113818888Y-53825703D01*
X113901782Y-53956124D01*
X113958644Y-54102315D01*
X113990313Y-54247088D01*
X113998131Y-54409860D01*
X113972062Y-54573440D01*
X113914755Y-54732298D01*
X113828856Y-54880906D01*
X113717014Y-55013735D01*
X113581877Y-55125256D01*
X113564117Y-55137011D01*
X113507850Y-55175508D01*
X113465077Y-55208863D01*
X113444628Y-55230160D01*
X113444331Y-55230833D01*
X113448721Y-55253871D01*
X113466124Y-55306157D01*
X113494732Y-55383390D01*
X113532735Y-55481268D01*
X113578326Y-55595491D01*
X113629697Y-55721758D01*
X113685038Y-55855767D01*
X113742542Y-55993218D01*
X113800399Y-56129808D01*
X113856802Y-56261237D01*
X113909942Y-56383205D01*
X113958010Y-56491409D01*
X113999199Y-56581549D01*
X114031699Y-56649323D01*
X114053703Y-56690430D01*
X114062564Y-56701226D01*
X114089640Y-56692819D01*
X114140303Y-56670272D01*
X114205817Y-56637613D01*
X114241841Y-56618520D01*
X114394832Y-56535800D01*
X114577088Y-56659075D01*
X114670125Y-56722228D01*
X114771985Y-56791727D01*
X114867438Y-56857165D01*
X114915250Y-56890117D01*
X114982495Y-56935273D01*
X115039436Y-56971057D01*
X115078646Y-56992938D01*
X115091381Y-56997563D01*
X115109917Y-56985085D01*
X115150941Y-56950252D01*
X115210475Y-56896678D01*
X115284542Y-56827983D01*
X115369165Y-56747781D01*
X115422685Y-56696286D01*
X115516319Y-56604286D01*
X115597241Y-56521999D01*
X115662177Y-56452945D01*
X115707858Y-56400644D01*
X115731011Y-56368616D01*
X115733232Y-56362116D01*
X115722924Y-56337394D01*
X115694439Y-56287405D01*
X115650937Y-56217212D01*
X115595577Y-56131875D01*
X115531520Y-56036456D01*
X115513303Y-56009854D01*
X115446927Y-55913167D01*
X115387378Y-55826117D01*
X115337984Y-55753595D01*
X115302075Y-55700493D01*
X115282981Y-55671703D01*
X115281136Y-55668726D01*
X115283895Y-55645782D01*
X115298538Y-55595336D01*
X115322513Y-55524041D01*
X115353266Y-55438547D01*
X115388244Y-55345507D01*
X115424893Y-55251574D01*
X115460661Y-55163399D01*
X115492994Y-55087634D01*
X115519338Y-55030931D01*
X115537142Y-54999943D01*
X115538407Y-54998457D01*
X115549294Y-54989601D01*
X115567682Y-54980843D01*
X115597606Y-54971277D01*
X115643103Y-54959996D01*
X115708209Y-54946093D01*
X115796961Y-54928663D01*
X115913393Y-54906798D01*
X116061542Y-54879591D01*
X116093618Y-54873741D01*
X116188686Y-54855374D01*
X116271565Y-54837405D01*
X116334930Y-54821569D01*
X116371458Y-54809600D01*
X116376356Y-54806810D01*
X116384427Y-54782072D01*
X116390987Y-54726790D01*
X116396033Y-54647389D01*
X116399559Y-54550296D01*
X116401561Y-54441938D01*
X116402036Y-54328740D01*
X116400977Y-54217128D01*
X116398382Y-54113529D01*
X116394246Y-54024368D01*
X116388563Y-53956072D01*
X116381331Y-53915066D01*
X116376971Y-53906674D01*
X116352698Y-53898208D01*
X116297426Y-53884435D01*
X116216662Y-53866550D01*
X116115912Y-53845748D01*
X116000683Y-53823223D01*
X115937902Y-53811418D01*
X115818787Y-53789151D01*
X115712565Y-53768979D01*
X115624427Y-53751915D01*
X115559566Y-53738969D01*
X115523174Y-53731155D01*
X115517184Y-53729422D01*
X115507061Y-53709890D01*
X115485662Y-53662843D01*
X115455839Y-53595003D01*
X115420445Y-53513091D01*
X115382332Y-53423828D01*
X115344353Y-53333935D01*
X115309360Y-53250135D01*
X115280206Y-53179147D01*
X115259743Y-53127694D01*
X115250823Y-53102497D01*
X115250657Y-53101396D01*
X115260769Y-53081519D01*
X115289117Y-53035777D01*
X115332723Y-52968717D01*
X115388606Y-52884884D01*
X115453787Y-52788826D01*
X115491679Y-52733650D01*
X115560725Y-52632481D01*
X115622050Y-52540630D01*
X115672663Y-52462744D01*
X115709571Y-52403469D01*
X115729782Y-52367451D01*
X115732701Y-52359377D01*
X115720153Y-52340584D01*
X115685463Y-52300457D01*
X115633063Y-52243493D01*
X115567384Y-52174185D01*
X115492856Y-52097031D01*
X115413913Y-52016525D01*
X115334983Y-51937163D01*
X115260500Y-51863440D01*
X115194894Y-51799852D01*
X115142596Y-51750894D01*
X115108039Y-51721061D01*
X115096478Y-51713942D01*
X115077654Y-51723953D01*
X115032631Y-51752078D01*
X114965787Y-51795454D01*
X114881499Y-51851218D01*
X114784144Y-51916506D01*
X114710707Y-51966246D01*
X114339667Y-52218551D01*
X113721095Y-51963555D01*
X113637275Y-51518931D01*
X113553454Y-51074307D01*
X112628006Y-51074307D01*
X112544186Y-51518931D01*
G36*
X119150000Y-49410000D02*
G01*
X119220000Y-49410000D01*
X119270000Y-49420000D01*
X119270000Y-49560000D01*
X119320000Y-49580000D01*
X119390000Y-49580000D01*
X119390000Y-49640000D01*
X119350000Y-49660000D01*
X119290000Y-49660000D01*
X119270000Y-49720000D01*
X119270000Y-50060000D01*
X119270000Y-50130000D01*
X119250000Y-50190000D01*
X119220000Y-50240000D01*
X119160000Y-50270000D01*
X119090000Y-50270000D01*
X119020000Y-50260000D01*
X119020000Y-50190000D01*
X119060000Y-50170000D01*
X119130000Y-50160000D01*
X119150000Y-50100000D01*
X119150000Y-49690000D01*
X119110000Y-49660000D01*
X119040000Y-49660000D01*
X119020000Y-49620000D01*
X119050000Y-49580000D01*
X119120000Y-49580000D01*
X119150000Y-49540000D01*
X119150000Y-49410000D01*
G37*
X119150000Y-49410000D02*
X119220000Y-49410000D01*
X119270000Y-49420000D01*
X119270000Y-49560000D01*
X119320000Y-49580000D01*
X119390000Y-49580000D01*
X119390000Y-49640000D01*
X119350000Y-49660000D01*
X119290000Y-49660000D01*
X119270000Y-49720000D01*
X119270000Y-50060000D01*
X119270000Y-50130000D01*
X119250000Y-50190000D01*
X119220000Y-50240000D01*
X119160000Y-50270000D01*
X119090000Y-50270000D01*
X119020000Y-50260000D01*
X119020000Y-50190000D01*
X119060000Y-50170000D01*
X119130000Y-50160000D01*
X119150000Y-50100000D01*
X119150000Y-49690000D01*
X119110000Y-49660000D01*
X119040000Y-49660000D01*
X119020000Y-49620000D01*
X119050000Y-49580000D01*
X119120000Y-49580000D01*
X119150000Y-49540000D01*
X119150000Y-49410000D01*
G36*
X118420000Y-50270000D02*
G01*
X118350000Y-50260000D01*
X118290000Y-50230000D01*
X118240000Y-50190000D01*
X118200000Y-50140000D01*
X118240000Y-50100000D01*
X118290000Y-50120000D01*
X118350000Y-50160000D01*
X118410000Y-50180000D01*
X118480000Y-50180000D01*
X118540000Y-50150000D01*
X118600000Y-50110000D01*
X118630000Y-50050000D01*
X118650000Y-49990000D01*
X118620000Y-49950000D01*
X118620000Y-49850000D01*
X118630000Y-49800000D01*
X118610000Y-49740000D01*
X118560000Y-49690000D01*
X118500000Y-49660000D01*
X118470000Y-49660000D01*
X118400000Y-49670000D01*
X118340000Y-49710000D01*
X118310000Y-49760000D01*
X118300000Y-49830000D01*
X118350000Y-49850000D01*
X118620000Y-49850000D01*
X118610000Y-49950000D01*
X118210000Y-49950000D01*
X118180000Y-49910000D01*
X118180000Y-49830000D01*
X118200000Y-49760000D01*
X118220000Y-49700000D01*
X118250000Y-49650000D01*
X118300000Y-49610000D01*
X118360000Y-49580000D01*
X118430000Y-49560000D01*
X118500000Y-49570000D01*
X118570000Y-49580000D01*
X118630000Y-49610000D01*
X118680000Y-49660000D01*
X118720000Y-49710000D01*
X118740000Y-49770000D01*
X118760000Y-49840000D01*
X118760000Y-49910000D01*
X118760000Y-49980000D01*
X118750000Y-50050000D01*
X118720000Y-50110000D01*
X118690000Y-50170000D01*
X118640000Y-50210000D01*
X118590000Y-50250000D01*
X118520000Y-50270000D01*
X118450000Y-50270000D01*
X118420000Y-50270000D01*
G37*
X118420000Y-50270000D02*
X118350000Y-50260000D01*
X118290000Y-50230000D01*
X118240000Y-50190000D01*
X118200000Y-50140000D01*
X118240000Y-50100000D01*
X118290000Y-50120000D01*
X118350000Y-50160000D01*
X118410000Y-50180000D01*
X118480000Y-50180000D01*
X118540000Y-50150000D01*
X118600000Y-50110000D01*
X118630000Y-50050000D01*
X118650000Y-49990000D01*
X118620000Y-49950000D01*
X118620000Y-49850000D01*
X118630000Y-49800000D01*
X118610000Y-49740000D01*
X118560000Y-49690000D01*
X118500000Y-49660000D01*
X118470000Y-49660000D01*
X118400000Y-49670000D01*
X118340000Y-49710000D01*
X118310000Y-49760000D01*
X118300000Y-49830000D01*
X118350000Y-49850000D01*
X118620000Y-49850000D01*
X118610000Y-49950000D01*
X118210000Y-49950000D01*
X118180000Y-49910000D01*
X118180000Y-49830000D01*
X118200000Y-49760000D01*
X118220000Y-49700000D01*
X118250000Y-49650000D01*
X118300000Y-49610000D01*
X118360000Y-49580000D01*
X118430000Y-49560000D01*
X118500000Y-49570000D01*
X118570000Y-49580000D01*
X118630000Y-49610000D01*
X118680000Y-49660000D01*
X118720000Y-49710000D01*
X118740000Y-49770000D01*
X118760000Y-49840000D01*
X118760000Y-49910000D01*
X118760000Y-49980000D01*
X118750000Y-50050000D01*
X118720000Y-50110000D01*
X118690000Y-50170000D01*
X118640000Y-50210000D01*
X118590000Y-50250000D01*
X118520000Y-50270000D01*
X118450000Y-50270000D01*
X118420000Y-50270000D01*
G36*
X117670000Y-50180000D02*
G01*
X117740000Y-50170000D01*
X117800000Y-50130000D01*
X117830000Y-50080000D01*
X117850000Y-50020000D01*
X117860000Y-49950000D01*
X117860000Y-49870000D01*
X117850000Y-49800000D01*
X117830000Y-49740000D01*
X117780000Y-49690000D01*
X117720000Y-49660000D01*
X117650000Y-49660000D01*
X117590000Y-49680000D01*
X117540000Y-49730000D01*
X117510000Y-49790000D01*
X117460000Y-49810000D01*
X117400000Y-49800000D01*
X117420000Y-49730000D01*
X117450000Y-49670000D01*
X117490000Y-49620000D01*
X117550000Y-49590000D01*
X117620000Y-49570000D01*
X117690000Y-49560000D01*
X117760000Y-49570000D01*
X117820000Y-49600000D01*
X117870000Y-49630000D01*
X117920000Y-49680000D01*
X117950000Y-49740000D01*
X117970000Y-49810000D01*
X117980000Y-49880000D01*
X117980000Y-49950000D01*
X117970000Y-50020000D01*
X117950000Y-50090000D01*
X117920000Y-50150000D01*
X117880000Y-50200000D01*
X117830000Y-50240000D01*
X117770000Y-50260000D01*
X117700000Y-50270000D01*
X117630000Y-50270000D01*
X117560000Y-50250000D01*
X117500000Y-50220000D01*
X117450000Y-50170000D01*
X117420000Y-50110000D01*
X117400000Y-50050000D01*
X117470000Y-50040000D01*
X117520000Y-50070000D01*
X117550000Y-50120000D01*
X117610000Y-50170000D01*
X117670000Y-50180000D01*
G37*
X117670000Y-50180000D02*
X117740000Y-50170000D01*
X117800000Y-50130000D01*
X117830000Y-50080000D01*
X117850000Y-50020000D01*
X117860000Y-49950000D01*
X117860000Y-49870000D01*
X117850000Y-49800000D01*
X117830000Y-49740000D01*
X117780000Y-49690000D01*
X117720000Y-49660000D01*
X117650000Y-49660000D01*
X117590000Y-49680000D01*
X117540000Y-49730000D01*
X117510000Y-49790000D01*
X117460000Y-49810000D01*
X117400000Y-49800000D01*
X117420000Y-49730000D01*
X117450000Y-49670000D01*
X117490000Y-49620000D01*
X117550000Y-49590000D01*
X117620000Y-49570000D01*
X117690000Y-49560000D01*
X117760000Y-49570000D01*
X117820000Y-49600000D01*
X117870000Y-49630000D01*
X117920000Y-49680000D01*
X117950000Y-49740000D01*
X117970000Y-49810000D01*
X117980000Y-49880000D01*
X117980000Y-49950000D01*
X117970000Y-50020000D01*
X117950000Y-50090000D01*
X117920000Y-50150000D01*
X117880000Y-50200000D01*
X117830000Y-50240000D01*
X117770000Y-50260000D01*
X117700000Y-50270000D01*
X117630000Y-50270000D01*
X117560000Y-50250000D01*
X117500000Y-50220000D01*
X117450000Y-50170000D01*
X117420000Y-50110000D01*
X117400000Y-50050000D01*
X117470000Y-50040000D01*
X117520000Y-50070000D01*
X117550000Y-50120000D01*
X117610000Y-50170000D01*
X117670000Y-50180000D01*
G36*
X116980000Y-49960000D02*
G01*
X116780000Y-50220000D01*
X116730000Y-50270000D01*
X116660000Y-50270000D01*
X116610000Y-50270000D01*
X116890000Y-49890000D01*
X116870000Y-49840000D01*
X116630000Y-49590000D01*
X116690000Y-49590000D01*
X116760000Y-49590000D01*
X116810000Y-49630000D01*
X117000000Y-49820000D01*
X117040000Y-49880000D01*
X117050000Y-49840000D01*
X117050000Y-49360000D01*
X117060000Y-49300000D01*
X117120000Y-49300000D01*
X117170000Y-49320000D01*
X117170000Y-50270000D01*
X117110000Y-50270000D01*
X117050000Y-50270000D01*
X117050000Y-50070000D01*
X117030000Y-50010000D01*
X116980000Y-49960000D01*
G37*
X116980000Y-49960000D02*
X116780000Y-50220000D01*
X116730000Y-50270000D01*
X116660000Y-50270000D01*
X116610000Y-50270000D01*
X116890000Y-49890000D01*
X116870000Y-49840000D01*
X116630000Y-49590000D01*
X116690000Y-49590000D01*
X116760000Y-49590000D01*
X116810000Y-49630000D01*
X117000000Y-49820000D01*
X117040000Y-49880000D01*
X117050000Y-49840000D01*
X117050000Y-49360000D01*
X117060000Y-49300000D01*
X117120000Y-49300000D01*
X117170000Y-49320000D01*
X117170000Y-50270000D01*
X117110000Y-50270000D01*
X117050000Y-50270000D01*
X117050000Y-50070000D01*
X117030000Y-50010000D01*
X116980000Y-49960000D01*
G36*
X116280000Y-49590000D02*
G01*
X116350000Y-49590000D01*
X116400000Y-49610000D01*
X116400000Y-50220000D01*
X116390000Y-50270000D01*
X116320000Y-50270000D01*
X116280000Y-50250000D01*
X116280000Y-49840000D01*
X116280000Y-49780000D01*
X116240000Y-49720000D01*
X116180000Y-49680000D01*
X116120000Y-49670000D01*
X116040000Y-49680000D01*
X116000000Y-49720000D01*
X115980000Y-49780000D01*
X115970000Y-49850000D01*
X115970000Y-50260000D01*
X115920000Y-50270000D01*
X115860000Y-50270000D01*
X115860000Y-49800000D01*
X115870000Y-49720000D01*
X115890000Y-49660000D01*
X115930000Y-49620000D01*
X115990000Y-49590000D01*
X116050000Y-49580000D01*
X116130000Y-49580000D01*
X116190000Y-49600000D01*
X116280000Y-49660000D01*
X116280000Y-49590000D01*
G37*
X116280000Y-49590000D02*
X116350000Y-49590000D01*
X116400000Y-49610000D01*
X116400000Y-50220000D01*
X116390000Y-50270000D01*
X116320000Y-50270000D01*
X116280000Y-50250000D01*
X116280000Y-49840000D01*
X116280000Y-49780000D01*
X116240000Y-49720000D01*
X116180000Y-49680000D01*
X116120000Y-49670000D01*
X116040000Y-49680000D01*
X116000000Y-49720000D01*
X115980000Y-49780000D01*
X115970000Y-49850000D01*
X115970000Y-50260000D01*
X115920000Y-50270000D01*
X115860000Y-50270000D01*
X115860000Y-49800000D01*
X115870000Y-49720000D01*
X115890000Y-49660000D01*
X115930000Y-49620000D01*
X115990000Y-49590000D01*
X116050000Y-49580000D01*
X116130000Y-49580000D01*
X116190000Y-49600000D01*
X116280000Y-49660000D01*
X116280000Y-49590000D01*
G36*
X115570000Y-49920000D02*
G01*
X115560000Y-49840000D01*
X115540000Y-49780000D01*
X115510000Y-49730000D01*
X115460000Y-49680000D01*
X115400000Y-49660000D01*
X115330000Y-49660000D01*
X115270000Y-49690000D01*
X115220000Y-49730000D01*
X115190000Y-49790000D01*
X115180000Y-49860000D01*
X115170000Y-49930000D01*
X115180000Y-50010000D01*
X115200000Y-50070000D01*
X115240000Y-50120000D01*
X115290000Y-50160000D01*
X115350000Y-50180000D01*
X115420000Y-50170000D01*
X115480000Y-50140000D01*
X115520000Y-50090000D01*
X115550000Y-50030000D01*
X115560000Y-49970000D01*
X115680000Y-49940000D01*
X115670000Y-50010000D01*
X115660000Y-50080000D01*
X115630000Y-50130000D01*
X115590000Y-50180000D01*
X115540000Y-50230000D01*
X115480000Y-50260000D01*
X115410000Y-50270000D01*
X115340000Y-50270000D01*
X115280000Y-50260000D01*
X115210000Y-50230000D01*
X115160000Y-50190000D01*
X115120000Y-50140000D01*
X115090000Y-50080000D01*
X115070000Y-50020000D01*
X115060000Y-49950000D01*
X115060000Y-49880000D01*
X115070000Y-49800000D01*
X115090000Y-49740000D01*
X115120000Y-49690000D01*
X115170000Y-49640000D01*
X115220000Y-49600000D01*
X115280000Y-49570000D01*
X115350000Y-49560000D01*
X115420000Y-49570000D01*
X115490000Y-49580000D01*
X115540000Y-49610000D01*
X115600000Y-49660000D01*
X115640000Y-49710000D01*
X115660000Y-49770000D01*
X115680000Y-49840000D01*
X115680000Y-49910000D01*
X115570000Y-49920000D01*
G37*
X115570000Y-49920000D02*
X115560000Y-49840000D01*
X115540000Y-49780000D01*
X115510000Y-49730000D01*
X115460000Y-49680000D01*
X115400000Y-49660000D01*
X115330000Y-49660000D01*
X115270000Y-49690000D01*
X115220000Y-49730000D01*
X115190000Y-49790000D01*
X115180000Y-49860000D01*
X115170000Y-49930000D01*
X115180000Y-50010000D01*
X115200000Y-50070000D01*
X115240000Y-50120000D01*
X115290000Y-50160000D01*
X115350000Y-50180000D01*
X115420000Y-50170000D01*
X115480000Y-50140000D01*
X115520000Y-50090000D01*
X115550000Y-50030000D01*
X115560000Y-49970000D01*
X115680000Y-49940000D01*
X115670000Y-50010000D01*
X115660000Y-50080000D01*
X115630000Y-50130000D01*
X115590000Y-50180000D01*
X115540000Y-50230000D01*
X115480000Y-50260000D01*
X115410000Y-50270000D01*
X115340000Y-50270000D01*
X115280000Y-50260000D01*
X115210000Y-50230000D01*
X115160000Y-50190000D01*
X115120000Y-50140000D01*
X115090000Y-50080000D01*
X115070000Y-50020000D01*
X115060000Y-49950000D01*
X115060000Y-49880000D01*
X115070000Y-49800000D01*
X115090000Y-49740000D01*
X115120000Y-49690000D01*
X115170000Y-49640000D01*
X115220000Y-49600000D01*
X115280000Y-49570000D01*
X115350000Y-49560000D01*
X115420000Y-49570000D01*
X115490000Y-49580000D01*
X115540000Y-49610000D01*
X115600000Y-49660000D01*
X115640000Y-49710000D01*
X115660000Y-49770000D01*
X115680000Y-49840000D01*
X115680000Y-49910000D01*
X115570000Y-49920000D01*
G36*
X114730000Y-50270000D02*
G01*
X114730000Y-49320000D01*
X114780000Y-49300000D01*
X114850000Y-49300000D01*
X114850000Y-50250000D01*
X114800000Y-50270000D01*
X114730000Y-50270000D01*
G37*
X114730000Y-50270000D02*
X114730000Y-49320000D01*
X114780000Y-49300000D01*
X114850000Y-49300000D01*
X114850000Y-50250000D01*
X114800000Y-50270000D01*
X114730000Y-50270000D01*
G36*
X114420000Y-49920000D02*
G01*
X114420000Y-49840000D01*
X114400000Y-49780000D01*
X114370000Y-49730000D01*
X114320000Y-49680000D01*
X114260000Y-49660000D01*
X114190000Y-49660000D01*
X114130000Y-49690000D01*
X114080000Y-49730000D01*
X114050000Y-49790000D01*
X114030000Y-49860000D01*
X114030000Y-49930000D01*
X114040000Y-50010000D01*
X114060000Y-50070000D01*
X114090000Y-50120000D01*
X114140000Y-50160000D01*
X114210000Y-50180000D01*
X114280000Y-50170000D01*
X114330000Y-50140000D01*
X114380000Y-50090000D01*
X114410000Y-50030000D01*
X114420000Y-49970000D01*
X114540000Y-49940000D01*
X114530000Y-50010000D01*
X114510000Y-50080000D01*
X114480000Y-50130000D01*
X114440000Y-50180000D01*
X114390000Y-50230000D01*
X114340000Y-50260000D01*
X114270000Y-50270000D01*
X114200000Y-50270000D01*
X114130000Y-50260000D01*
X114070000Y-50230000D01*
X114010000Y-50190000D01*
X113970000Y-50140000D01*
X113940000Y-50080000D01*
X113920000Y-50020000D01*
X113910000Y-49950000D01*
X113910000Y-49880000D01*
X113930000Y-49800000D01*
X113950000Y-49740000D01*
X113980000Y-49690000D01*
X114020000Y-49640000D01*
X114080000Y-49600000D01*
X114140000Y-49570000D01*
X114210000Y-49560000D01*
X114280000Y-49570000D01*
X114340000Y-49580000D01*
X114400000Y-49610000D01*
X114450000Y-49660000D01*
X114490000Y-49710000D01*
X114520000Y-49770000D01*
X114530000Y-49840000D01*
X114540000Y-49910000D01*
X114420000Y-49920000D01*
G37*
X114420000Y-49920000D02*
X114420000Y-49840000D01*
X114400000Y-49780000D01*
X114370000Y-49730000D01*
X114320000Y-49680000D01*
X114260000Y-49660000D01*
X114190000Y-49660000D01*
X114130000Y-49690000D01*
X114080000Y-49730000D01*
X114050000Y-49790000D01*
X114030000Y-49860000D01*
X114030000Y-49930000D01*
X114040000Y-50010000D01*
X114060000Y-50070000D01*
X114090000Y-50120000D01*
X114140000Y-50160000D01*
X114210000Y-50180000D01*
X114280000Y-50170000D01*
X114330000Y-50140000D01*
X114380000Y-50090000D01*
X114410000Y-50030000D01*
X114420000Y-49970000D01*
X114540000Y-49940000D01*
X114530000Y-50010000D01*
X114510000Y-50080000D01*
X114480000Y-50130000D01*
X114440000Y-50180000D01*
X114390000Y-50230000D01*
X114340000Y-50260000D01*
X114270000Y-50270000D01*
X114200000Y-50270000D01*
X114130000Y-50260000D01*
X114070000Y-50230000D01*
X114010000Y-50190000D01*
X113970000Y-50140000D01*
X113940000Y-50080000D01*
X113920000Y-50020000D01*
X113910000Y-49950000D01*
X113910000Y-49880000D01*
X113930000Y-49800000D01*
X113950000Y-49740000D01*
X113980000Y-49690000D01*
X114020000Y-49640000D01*
X114080000Y-49600000D01*
X114140000Y-49570000D01*
X114210000Y-49560000D01*
X114280000Y-49570000D01*
X114340000Y-49580000D01*
X114400000Y-49610000D01*
X114450000Y-49660000D01*
X114490000Y-49710000D01*
X114520000Y-49770000D01*
X114530000Y-49840000D01*
X114540000Y-49910000D01*
X114420000Y-49920000D01*
G36*
X113630000Y-49900000D02*
G01*
X113620000Y-49820000D01*
X113610000Y-49760000D01*
X113580000Y-49710000D01*
X113530000Y-49660000D01*
X113470000Y-49640000D01*
X113400000Y-49640000D01*
X113340000Y-49670000D01*
X113300000Y-49720000D01*
X113280000Y-49780000D01*
X113280000Y-49990000D01*
X113290000Y-50050000D01*
X113330000Y-50110000D01*
X113380000Y-50140000D01*
X113450000Y-50150000D01*
X113510000Y-50140000D01*
X113570000Y-50100000D01*
X113600000Y-50050000D01*
X113620000Y-49990000D01*
X113630000Y-49910000D01*
X113740000Y-49960000D01*
X113730000Y-50030000D01*
X113710000Y-50090000D01*
X113680000Y-50140000D01*
X113640000Y-50190000D01*
X113580000Y-50230000D01*
X113520000Y-50250000D01*
X113450000Y-50250000D01*
X113380000Y-50240000D01*
X113320000Y-50210000D01*
X113280000Y-50180000D01*
X113280000Y-50250000D01*
X113300000Y-50320000D01*
X113330000Y-50370000D01*
X113390000Y-50400000D01*
X113460000Y-50420000D01*
X113530000Y-50410000D01*
X113580000Y-50380000D01*
X113640000Y-50340000D01*
X113680000Y-50360000D01*
X113690000Y-50410000D01*
X113650000Y-50450000D01*
X113580000Y-50490000D01*
X113520000Y-50510000D01*
X113450000Y-50510000D01*
X113380000Y-50500000D01*
X113320000Y-50480000D01*
X113260000Y-50450000D01*
X113220000Y-50400000D01*
X113180000Y-50350000D01*
X113170000Y-50280000D01*
X113160000Y-50210000D01*
X113160000Y-49600000D01*
X113180000Y-49560000D01*
X113250000Y-49560000D01*
X113270000Y-49600000D01*
X113300000Y-49600000D01*
X113360000Y-49570000D01*
X113420000Y-49550000D01*
X113490000Y-49540000D01*
X113560000Y-49560000D01*
X113620000Y-49590000D01*
X113670000Y-49630000D01*
X113700000Y-49690000D01*
X113730000Y-49750000D01*
X113740000Y-49810000D01*
X113740000Y-49890000D01*
X113630000Y-49900000D01*
G37*
X113630000Y-49900000D02*
X113620000Y-49820000D01*
X113610000Y-49760000D01*
X113580000Y-49710000D01*
X113530000Y-49660000D01*
X113470000Y-49640000D01*
X113400000Y-49640000D01*
X113340000Y-49670000D01*
X113300000Y-49720000D01*
X113280000Y-49780000D01*
X113280000Y-49990000D01*
X113290000Y-50050000D01*
X113330000Y-50110000D01*
X113380000Y-50140000D01*
X113450000Y-50150000D01*
X113510000Y-50140000D01*
X113570000Y-50100000D01*
X113600000Y-50050000D01*
X113620000Y-49990000D01*
X113630000Y-49910000D01*
X113740000Y-49960000D01*
X113730000Y-50030000D01*
X113710000Y-50090000D01*
X113680000Y-50140000D01*
X113640000Y-50190000D01*
X113580000Y-50230000D01*
X113520000Y-50250000D01*
X113450000Y-50250000D01*
X113380000Y-50240000D01*
X113320000Y-50210000D01*
X113280000Y-50180000D01*
X113280000Y-50250000D01*
X113300000Y-50320000D01*
X113330000Y-50370000D01*
X113390000Y-50400000D01*
X113460000Y-50420000D01*
X113530000Y-50410000D01*
X113580000Y-50380000D01*
X113640000Y-50340000D01*
X113680000Y-50360000D01*
X113690000Y-50410000D01*
X113650000Y-50450000D01*
X113580000Y-50490000D01*
X113520000Y-50510000D01*
X113450000Y-50510000D01*
X113380000Y-50500000D01*
X113320000Y-50480000D01*
X113260000Y-50450000D01*
X113220000Y-50400000D01*
X113180000Y-50350000D01*
X113170000Y-50280000D01*
X113160000Y-50210000D01*
X113160000Y-49600000D01*
X113180000Y-49560000D01*
X113250000Y-49560000D01*
X113270000Y-49600000D01*
X113300000Y-49600000D01*
X113360000Y-49570000D01*
X113420000Y-49550000D01*
X113490000Y-49540000D01*
X113560000Y-49560000D01*
X113620000Y-49590000D01*
X113670000Y-49630000D01*
X113700000Y-49690000D01*
X113730000Y-49750000D01*
X113740000Y-49810000D01*
X113740000Y-49890000D01*
X113630000Y-49900000D01*
G36*
X112840000Y-49900000D02*
G01*
X112840000Y-49820000D01*
X112820000Y-49760000D01*
X112790000Y-49710000D01*
X112750000Y-49660000D01*
X112680000Y-49640000D01*
X112620000Y-49640000D01*
X112560000Y-49670000D01*
X112510000Y-49720000D01*
X112500000Y-49780000D01*
X112500000Y-49990000D01*
X112500000Y-50050000D01*
X112540000Y-50110000D01*
X112590000Y-50140000D01*
X112660000Y-50150000D01*
X112730000Y-50140000D01*
X112780000Y-50100000D01*
X112820000Y-50050000D01*
X112840000Y-49990000D01*
X112840000Y-49910000D01*
X112960000Y-49960000D01*
X112940000Y-50030000D01*
X112920000Y-50090000D01*
X112890000Y-50140000D01*
X112850000Y-50190000D01*
X112800000Y-50230000D01*
X112730000Y-50250000D01*
X112660000Y-50250000D01*
X112600000Y-50240000D01*
X112540000Y-50210000D01*
X112500000Y-50180000D01*
X112500000Y-50250000D01*
X112510000Y-50320000D01*
X112550000Y-50370000D01*
X112600000Y-50400000D01*
X112670000Y-50420000D01*
X112740000Y-50410000D01*
X112800000Y-50380000D01*
X112850000Y-50340000D01*
X112900000Y-50360000D01*
X112910000Y-50410000D01*
X112860000Y-50450000D01*
X112800000Y-50490000D01*
X112730000Y-50510000D01*
X112670000Y-50510000D01*
X112600000Y-50500000D01*
X112530000Y-50480000D01*
X112480000Y-50450000D01*
X112430000Y-50400000D01*
X112400000Y-50350000D01*
X112380000Y-50280000D01*
X112380000Y-50210000D01*
X112380000Y-49600000D01*
X112400000Y-49560000D01*
X112460000Y-49560000D01*
X112490000Y-49600000D01*
X112520000Y-49600000D01*
X112570000Y-49570000D01*
X112640000Y-49550000D01*
X112710000Y-49540000D01*
X112770000Y-49560000D01*
X112830000Y-49590000D01*
X112880000Y-49630000D01*
X112920000Y-49690000D01*
X112940000Y-49750000D01*
X112950000Y-49810000D01*
X112960000Y-49890000D01*
X112840000Y-49900000D01*
G37*
X112840000Y-49900000D02*
X112840000Y-49820000D01*
X112820000Y-49760000D01*
X112790000Y-49710000D01*
X112750000Y-49660000D01*
X112680000Y-49640000D01*
X112620000Y-49640000D01*
X112560000Y-49670000D01*
X112510000Y-49720000D01*
X112500000Y-49780000D01*
X112500000Y-49990000D01*
X112500000Y-50050000D01*
X112540000Y-50110000D01*
X112590000Y-50140000D01*
X112660000Y-50150000D01*
X112730000Y-50140000D01*
X112780000Y-50100000D01*
X112820000Y-50050000D01*
X112840000Y-49990000D01*
X112840000Y-49910000D01*
X112960000Y-49960000D01*
X112940000Y-50030000D01*
X112920000Y-50090000D01*
X112890000Y-50140000D01*
X112850000Y-50190000D01*
X112800000Y-50230000D01*
X112730000Y-50250000D01*
X112660000Y-50250000D01*
X112600000Y-50240000D01*
X112540000Y-50210000D01*
X112500000Y-50180000D01*
X112500000Y-50250000D01*
X112510000Y-50320000D01*
X112550000Y-50370000D01*
X112600000Y-50400000D01*
X112670000Y-50420000D01*
X112740000Y-50410000D01*
X112800000Y-50380000D01*
X112850000Y-50340000D01*
X112900000Y-50360000D01*
X112910000Y-50410000D01*
X112860000Y-50450000D01*
X112800000Y-50490000D01*
X112730000Y-50510000D01*
X112670000Y-50510000D01*
X112600000Y-50500000D01*
X112530000Y-50480000D01*
X112480000Y-50450000D01*
X112430000Y-50400000D01*
X112400000Y-50350000D01*
X112380000Y-50280000D01*
X112380000Y-50210000D01*
X112380000Y-49600000D01*
X112400000Y-49560000D01*
X112460000Y-49560000D01*
X112490000Y-49600000D01*
X112520000Y-49600000D01*
X112570000Y-49570000D01*
X112640000Y-49550000D01*
X112710000Y-49540000D01*
X112770000Y-49560000D01*
X112830000Y-49590000D01*
X112880000Y-49630000D01*
X112920000Y-49690000D01*
X112940000Y-49750000D01*
X112950000Y-49810000D01*
X112960000Y-49890000D01*
X112840000Y-49900000D01*
G36*
X112110000Y-50210000D02*
G01*
X112080000Y-50260000D01*
X112010000Y-50270000D01*
X111970000Y-50230000D01*
X111970000Y-50170000D01*
X112020000Y-50130000D01*
X112080000Y-50150000D01*
X112110000Y-50210000D01*
G37*
X112110000Y-50210000D02*
X112080000Y-50260000D01*
X112010000Y-50270000D01*
X111970000Y-50230000D01*
X111970000Y-50170000D01*
X112020000Y-50130000D01*
X112080000Y-50150000D01*
X112110000Y-50210000D01*
G36*
X111160000Y-50110000D02*
G01*
X111320000Y-49600000D01*
X111380000Y-49590000D01*
X111420000Y-49620000D01*
X111570000Y-50070000D01*
X111590000Y-50060000D01*
X111710000Y-49610000D01*
X111760000Y-49590000D01*
X111830000Y-49590000D01*
X111640000Y-50240000D01*
X111600000Y-50270000D01*
X111530000Y-50270000D01*
X111370000Y-49760000D01*
X111350000Y-49810000D01*
X111210000Y-50260000D01*
X111150000Y-50270000D01*
X111100000Y-50250000D01*
X110910000Y-49600000D01*
X110960000Y-49590000D01*
X111030000Y-49590000D01*
X111040000Y-49650000D01*
X111160000Y-50110000D01*
G37*
X111160000Y-50110000D02*
X111320000Y-49600000D01*
X111380000Y-49590000D01*
X111420000Y-49620000D01*
X111570000Y-50070000D01*
X111590000Y-50060000D01*
X111710000Y-49610000D01*
X111760000Y-49590000D01*
X111830000Y-49590000D01*
X111640000Y-50240000D01*
X111600000Y-50270000D01*
X111530000Y-50270000D01*
X111370000Y-49760000D01*
X111350000Y-49810000D01*
X111210000Y-50260000D01*
X111150000Y-50270000D01*
X111100000Y-50250000D01*
X110910000Y-49600000D01*
X110960000Y-49590000D01*
X111030000Y-49590000D01*
X111040000Y-49650000D01*
X111160000Y-50110000D01*
G36*
X110320000Y-50270000D02*
G01*
X110250000Y-50260000D01*
X110190000Y-50230000D01*
X110140000Y-50190000D01*
X110100000Y-50140000D01*
X110150000Y-50100000D01*
X110200000Y-50120000D01*
X110250000Y-50160000D01*
X110320000Y-50180000D01*
X110390000Y-50180000D01*
X110450000Y-50150000D01*
X110500000Y-50110000D01*
X110530000Y-50050000D01*
X110550000Y-49990000D01*
X110520000Y-49950000D01*
X110530000Y-49850000D01*
X110540000Y-49800000D01*
X110510000Y-49740000D01*
X110470000Y-49690000D01*
X110410000Y-49660000D01*
X110370000Y-49660000D01*
X110300000Y-49670000D01*
X110250000Y-49710000D01*
X110220000Y-49760000D01*
X110210000Y-49830000D01*
X110260000Y-49850000D01*
X110530000Y-49850000D01*
X110520000Y-49950000D01*
X110110000Y-49950000D01*
X110090000Y-49910000D01*
X110090000Y-49830000D01*
X110100000Y-49760000D01*
X110130000Y-49700000D01*
X110160000Y-49650000D01*
X110210000Y-49610000D01*
X110270000Y-49580000D01*
X110330000Y-49560000D01*
X110410000Y-49570000D01*
X110470000Y-49580000D01*
X110530000Y-49610000D01*
X110580000Y-49660000D01*
X110620000Y-49710000D01*
X110650000Y-49770000D01*
X110660000Y-49840000D01*
X110670000Y-49910000D01*
X110670000Y-49980000D01*
X110650000Y-50050000D01*
X110630000Y-50110000D01*
X110600000Y-50170000D01*
X110550000Y-50210000D01*
X110490000Y-50250000D01*
X110430000Y-50270000D01*
X110360000Y-50270000D01*
X110320000Y-50270000D01*
G37*
X110320000Y-50270000D02*
X110250000Y-50260000D01*
X110190000Y-50230000D01*
X110140000Y-50190000D01*
X110100000Y-50140000D01*
X110150000Y-50100000D01*
X110200000Y-50120000D01*
X110250000Y-50160000D01*
X110320000Y-50180000D01*
X110390000Y-50180000D01*
X110450000Y-50150000D01*
X110500000Y-50110000D01*
X110530000Y-50050000D01*
X110550000Y-49990000D01*
X110520000Y-49950000D01*
X110530000Y-49850000D01*
X110540000Y-49800000D01*
X110510000Y-49740000D01*
X110470000Y-49690000D01*
X110410000Y-49660000D01*
X110370000Y-49660000D01*
X110300000Y-49670000D01*
X110250000Y-49710000D01*
X110220000Y-49760000D01*
X110210000Y-49830000D01*
X110260000Y-49850000D01*
X110530000Y-49850000D01*
X110520000Y-49950000D01*
X110110000Y-49950000D01*
X110090000Y-49910000D01*
X110090000Y-49830000D01*
X110100000Y-49760000D01*
X110130000Y-49700000D01*
X110160000Y-49650000D01*
X110210000Y-49610000D01*
X110270000Y-49580000D01*
X110330000Y-49560000D01*
X110410000Y-49570000D01*
X110470000Y-49580000D01*
X110530000Y-49610000D01*
X110580000Y-49660000D01*
X110620000Y-49710000D01*
X110650000Y-49770000D01*
X110660000Y-49840000D01*
X110670000Y-49910000D01*
X110670000Y-49980000D01*
X110650000Y-50050000D01*
X110630000Y-50110000D01*
X110600000Y-50170000D01*
X110550000Y-50210000D01*
X110490000Y-50250000D01*
X110430000Y-50270000D01*
X110360000Y-50270000D01*
X110320000Y-50270000D01*
G36*
X109390000Y-49910000D02*
G01*
X109390000Y-49990000D01*
X109410000Y-50050000D01*
X109430000Y-50100000D01*
X109480000Y-50150000D01*
X109540000Y-50170000D01*
X109620000Y-50170000D01*
X109670000Y-50140000D01*
X109720000Y-50100000D01*
X109740000Y-50030000D01*
X109740000Y-49830000D01*
X109740000Y-49760000D01*
X109700000Y-49700000D01*
X109640000Y-49670000D01*
X109580000Y-49660000D01*
X109510000Y-49670000D01*
X109450000Y-49710000D01*
X109420000Y-49760000D01*
X109400000Y-49820000D01*
X109390000Y-49890000D01*
X109280000Y-49860000D01*
X109290000Y-49790000D01*
X109310000Y-49730000D01*
X109330000Y-49670000D01*
X109380000Y-49620000D01*
X109430000Y-49590000D01*
X109490000Y-49570000D01*
X109570000Y-49560000D01*
X109630000Y-49580000D01*
X109690000Y-49610000D01*
X109740000Y-49650000D01*
X109740000Y-49310000D01*
X109780000Y-49290000D01*
X109850000Y-49290000D01*
X109860000Y-49350000D01*
X109860000Y-50230000D01*
X109820000Y-50260000D01*
X109750000Y-50260000D01*
X109740000Y-50200000D01*
X109710000Y-50220000D01*
X109660000Y-50250000D01*
X109590000Y-50270000D01*
X109520000Y-50270000D01*
X109450000Y-50260000D01*
X109390000Y-50230000D01*
X109340000Y-50180000D01*
X109310000Y-50130000D01*
X109290000Y-50070000D01*
X109280000Y-50000000D01*
X109270000Y-49920000D01*
X109390000Y-49910000D01*
G37*
X109390000Y-49910000D02*
X109390000Y-49990000D01*
X109410000Y-50050000D01*
X109430000Y-50100000D01*
X109480000Y-50150000D01*
X109540000Y-50170000D01*
X109620000Y-50170000D01*
X109670000Y-50140000D01*
X109720000Y-50100000D01*
X109740000Y-50030000D01*
X109740000Y-49830000D01*
X109740000Y-49760000D01*
X109700000Y-49700000D01*
X109640000Y-49670000D01*
X109580000Y-49660000D01*
X109510000Y-49670000D01*
X109450000Y-49710000D01*
X109420000Y-49760000D01*
X109400000Y-49820000D01*
X109390000Y-49890000D01*
X109280000Y-49860000D01*
X109290000Y-49790000D01*
X109310000Y-49730000D01*
X109330000Y-49670000D01*
X109380000Y-49620000D01*
X109430000Y-49590000D01*
X109490000Y-49570000D01*
X109570000Y-49560000D01*
X109630000Y-49580000D01*
X109690000Y-49610000D01*
X109740000Y-49650000D01*
X109740000Y-49310000D01*
X109780000Y-49290000D01*
X109850000Y-49290000D01*
X109860000Y-49350000D01*
X109860000Y-50230000D01*
X109820000Y-50260000D01*
X109750000Y-50260000D01*
X109740000Y-50200000D01*
X109710000Y-50220000D01*
X109660000Y-50250000D01*
X109590000Y-50270000D01*
X109520000Y-50270000D01*
X109450000Y-50260000D01*
X109390000Y-50230000D01*
X109340000Y-50180000D01*
X109310000Y-50130000D01*
X109290000Y-50070000D01*
X109280000Y-50000000D01*
X109270000Y-49920000D01*
X109390000Y-49910000D01*
G36*
X108670000Y-50080000D02*
G01*
X108690000Y-50140000D01*
X108750000Y-50170000D01*
X108820000Y-50180000D01*
X108890000Y-50170000D01*
X108940000Y-50130000D01*
X108980000Y-50080000D01*
X109020000Y-50050000D01*
X109090000Y-50050000D01*
X109090000Y-50110000D01*
X109060000Y-50170000D01*
X109010000Y-50220000D01*
X108950000Y-50250000D01*
X108890000Y-50270000D01*
X108820000Y-50270000D01*
X108740000Y-50270000D01*
X108680000Y-50250000D01*
X108630000Y-50220000D01*
X108580000Y-50170000D01*
X108550000Y-50110000D01*
X108550000Y-50040000D01*
X108570000Y-49980000D01*
X108620000Y-49930000D01*
X108670000Y-49900000D01*
X108730000Y-49880000D01*
X108880000Y-49840000D01*
X108930000Y-49810000D01*
X108960000Y-49750000D01*
X108930000Y-49690000D01*
X108880000Y-49660000D01*
X108800000Y-49660000D01*
X108740000Y-49680000D01*
X108690000Y-49720000D01*
X108660000Y-49770000D01*
X108600000Y-49770000D01*
X108560000Y-49740000D01*
X108580000Y-49680000D01*
X108620000Y-49630000D01*
X108670000Y-49590000D01*
X108730000Y-49570000D01*
X108800000Y-49560000D01*
X108880000Y-49570000D01*
X108940000Y-49580000D01*
X109000000Y-49610000D01*
X109050000Y-49660000D01*
X109070000Y-49720000D01*
X109080000Y-49790000D01*
X109050000Y-49850000D01*
X109010000Y-49900000D01*
X108950000Y-49930000D01*
X108890000Y-49950000D01*
X108810000Y-49960000D01*
X108740000Y-49980000D01*
X108690000Y-50020000D01*
X108670000Y-50080000D01*
G37*
X108670000Y-50080000D02*
X108690000Y-50140000D01*
X108750000Y-50170000D01*
X108820000Y-50180000D01*
X108890000Y-50170000D01*
X108940000Y-50130000D01*
X108980000Y-50080000D01*
X109020000Y-50050000D01*
X109090000Y-50050000D01*
X109090000Y-50110000D01*
X109060000Y-50170000D01*
X109010000Y-50220000D01*
X108950000Y-50250000D01*
X108890000Y-50270000D01*
X108820000Y-50270000D01*
X108740000Y-50270000D01*
X108680000Y-50250000D01*
X108630000Y-50220000D01*
X108580000Y-50170000D01*
X108550000Y-50110000D01*
X108550000Y-50040000D01*
X108570000Y-49980000D01*
X108620000Y-49930000D01*
X108670000Y-49900000D01*
X108730000Y-49880000D01*
X108880000Y-49840000D01*
X108930000Y-49810000D01*
X108960000Y-49750000D01*
X108930000Y-49690000D01*
X108880000Y-49660000D01*
X108800000Y-49660000D01*
X108740000Y-49680000D01*
X108690000Y-49720000D01*
X108660000Y-49770000D01*
X108600000Y-49770000D01*
X108560000Y-49740000D01*
X108580000Y-49680000D01*
X108620000Y-49630000D01*
X108670000Y-49590000D01*
X108730000Y-49570000D01*
X108800000Y-49560000D01*
X108880000Y-49570000D01*
X108940000Y-49580000D01*
X109000000Y-49610000D01*
X109050000Y-49660000D01*
X109070000Y-49720000D01*
X109080000Y-49790000D01*
X109050000Y-49850000D01*
X109010000Y-49900000D01*
X108950000Y-49930000D01*
X108890000Y-49950000D01*
X108810000Y-49960000D01*
X108740000Y-49980000D01*
X108690000Y-50020000D01*
X108670000Y-50080000D01*
G36*
X108190000Y-50240000D02*
G01*
X108190000Y-49630000D01*
X108220000Y-49590000D01*
X108290000Y-49590000D01*
X108310000Y-49640000D01*
X108310000Y-50250000D01*
X108260000Y-50270000D01*
X108190000Y-50270000D01*
X108190000Y-50240000D01*
G37*
X108190000Y-50240000D02*
X108190000Y-49630000D01*
X108220000Y-49590000D01*
X108290000Y-49590000D01*
X108310000Y-49640000D01*
X108310000Y-50250000D01*
X108260000Y-50270000D01*
X108190000Y-50270000D01*
X108190000Y-50240000D01*
G36*
X108320000Y-49410000D02*
G01*
X108290000Y-49460000D01*
X108220000Y-49460000D01*
X108180000Y-49420000D01*
X108200000Y-49350000D01*
X108260000Y-49340000D01*
X108310000Y-49370000D01*
X108320000Y-49410000D01*
G37*
X108320000Y-49410000D02*
X108290000Y-49460000D01*
X108220000Y-49460000D01*
X108180000Y-49420000D01*
X108200000Y-49350000D01*
X108260000Y-49340000D01*
X108310000Y-49370000D01*
X108320000Y-49410000D01*
G36*
X107810000Y-49410000D02*
G01*
X107880000Y-49410000D01*
X107930000Y-49420000D01*
X107930000Y-49560000D01*
X107980000Y-49580000D01*
X108050000Y-49580000D01*
X108050000Y-49640000D01*
X108010000Y-49660000D01*
X107950000Y-49660000D01*
X107930000Y-49720000D01*
X107930000Y-50060000D01*
X107930000Y-50130000D01*
X107910000Y-50190000D01*
X107880000Y-50240000D01*
X107820000Y-50270000D01*
X107750000Y-50270000D01*
X107680000Y-50260000D01*
X107680000Y-50190000D01*
X107730000Y-50170000D01*
X107790000Y-50160000D01*
X107810000Y-50100000D01*
X107810000Y-49690000D01*
X107770000Y-49660000D01*
X107700000Y-49660000D01*
X107680000Y-49620000D01*
X107710000Y-49580000D01*
X107780000Y-49580000D01*
X107810000Y-49540000D01*
X107810000Y-49410000D01*
G37*
X107810000Y-49410000D02*
X107880000Y-49410000D01*
X107930000Y-49420000D01*
X107930000Y-49560000D01*
X107980000Y-49580000D01*
X108050000Y-49580000D01*
X108050000Y-49640000D01*
X108010000Y-49660000D01*
X107950000Y-49660000D01*
X107930000Y-49720000D01*
X107930000Y-50060000D01*
X107930000Y-50130000D01*
X107910000Y-50190000D01*
X107880000Y-50240000D01*
X107820000Y-50270000D01*
X107750000Y-50270000D01*
X107680000Y-50260000D01*
X107680000Y-50190000D01*
X107730000Y-50170000D01*
X107790000Y-50160000D01*
X107810000Y-50100000D01*
X107810000Y-49690000D01*
X107770000Y-49660000D01*
X107700000Y-49660000D01*
X107680000Y-49620000D01*
X107710000Y-49580000D01*
X107780000Y-49580000D01*
X107810000Y-49540000D01*
X107810000Y-49410000D01*
G36*
X107080000Y-50270000D02*
G01*
X107010000Y-50260000D01*
X106950000Y-50230000D01*
X106900000Y-50190000D01*
X106860000Y-50140000D01*
X106910000Y-50100000D01*
X106960000Y-50120000D01*
X107010000Y-50160000D01*
X107070000Y-50180000D01*
X107140000Y-50180000D01*
X107210000Y-50150000D01*
X107260000Y-50110000D01*
X107290000Y-50050000D01*
X107310000Y-49990000D01*
X107280000Y-49950000D01*
X107290000Y-49850000D01*
X107290000Y-49800000D01*
X107270000Y-49740000D01*
X107220000Y-49690000D01*
X107160000Y-49660000D01*
X107130000Y-49660000D01*
X107060000Y-49670000D01*
X107010000Y-49710000D01*
X106980000Y-49760000D01*
X106960000Y-49830000D01*
X107010000Y-49850000D01*
X107280000Y-49850000D01*
X107280000Y-49950000D01*
X106870000Y-49950000D01*
X106840000Y-49910000D01*
X106850000Y-49830000D01*
X106860000Y-49760000D01*
X106880000Y-49700000D01*
X106920000Y-49650000D01*
X106960000Y-49610000D01*
X107020000Y-49580000D01*
X107090000Y-49560000D01*
X107160000Y-49570000D01*
X107230000Y-49580000D01*
X107290000Y-49610000D01*
X107340000Y-49660000D01*
X107380000Y-49710000D01*
X107400000Y-49770000D01*
X107420000Y-49840000D01*
X107420000Y-49910000D01*
X107420000Y-49980000D01*
X107410000Y-50050000D01*
X107390000Y-50110000D01*
X107350000Y-50170000D01*
X107300000Y-50210000D01*
X107250000Y-50250000D01*
X107180000Y-50270000D01*
X107110000Y-50270000D01*
X107080000Y-50270000D01*
G37*
X107080000Y-50270000D02*
X107010000Y-50260000D01*
X106950000Y-50230000D01*
X106900000Y-50190000D01*
X106860000Y-50140000D01*
X106910000Y-50100000D01*
X106960000Y-50120000D01*
X107010000Y-50160000D01*
X107070000Y-50180000D01*
X107140000Y-50180000D01*
X107210000Y-50150000D01*
X107260000Y-50110000D01*
X107290000Y-50050000D01*
X107310000Y-49990000D01*
X107280000Y-49950000D01*
X107290000Y-49850000D01*
X107290000Y-49800000D01*
X107270000Y-49740000D01*
X107220000Y-49690000D01*
X107160000Y-49660000D01*
X107130000Y-49660000D01*
X107060000Y-49670000D01*
X107010000Y-49710000D01*
X106980000Y-49760000D01*
X106960000Y-49830000D01*
X107010000Y-49850000D01*
X107280000Y-49850000D01*
X107280000Y-49950000D01*
X106870000Y-49950000D01*
X106840000Y-49910000D01*
X106850000Y-49830000D01*
X106860000Y-49760000D01*
X106880000Y-49700000D01*
X106920000Y-49650000D01*
X106960000Y-49610000D01*
X107020000Y-49580000D01*
X107090000Y-49560000D01*
X107160000Y-49570000D01*
X107230000Y-49580000D01*
X107290000Y-49610000D01*
X107340000Y-49660000D01*
X107380000Y-49710000D01*
X107400000Y-49770000D01*
X107420000Y-49840000D01*
X107420000Y-49910000D01*
X107420000Y-49980000D01*
X107410000Y-50050000D01*
X107390000Y-50110000D01*
X107350000Y-50170000D01*
X107300000Y-50210000D01*
X107250000Y-50250000D01*
X107180000Y-50270000D01*
X107110000Y-50270000D01*
X107080000Y-50270000D01*
G36*
X118960000Y-60420000D02*
G01*
X119240000Y-60420000D01*
X119270000Y-60450000D01*
X119270000Y-61740000D01*
X119240000Y-61780000D01*
X112950000Y-61780000D01*
X112930000Y-61730000D01*
X112930000Y-60440000D01*
X112980000Y-60420000D01*
X118930000Y-60420000D01*
X118810000Y-60690000D01*
X118750000Y-60670000D01*
X118210000Y-60670000D01*
X118150000Y-60670000D01*
X118080000Y-60700000D01*
X118040000Y-60750000D01*
X118010000Y-60810000D01*
X118010000Y-60880000D01*
X118010000Y-60940000D01*
X118030000Y-61010000D01*
X118060000Y-61070000D01*
X118030000Y-61110000D01*
X117980000Y-61160000D01*
X117950000Y-61220000D01*
X117940000Y-61290000D01*
X117750000Y-61250000D01*
X117760000Y-61180000D01*
X117750000Y-60980000D01*
X117740000Y-60910000D01*
X117720000Y-60850000D01*
X117690000Y-60790000D01*
X117650000Y-60740000D01*
X117590000Y-60700000D01*
X117530000Y-60670000D01*
X117470000Y-60650000D01*
X117400000Y-60640000D01*
X117130000Y-60640000D01*
X117060000Y-60650000D01*
X117000000Y-60670000D01*
X116940000Y-60700000D01*
X116880000Y-60740000D01*
X116840000Y-60790000D01*
X116810000Y-60850000D01*
X116790000Y-60910000D01*
X116780000Y-60980000D01*
X116770000Y-61180000D01*
X116560000Y-61150000D01*
X116560000Y-61080000D01*
X116550000Y-61010000D01*
X116530000Y-60950000D01*
X116500000Y-60890000D01*
X116460000Y-60830000D01*
X116420000Y-60780000D01*
X116370000Y-60740000D01*
X116310000Y-60710000D01*
X116250000Y-60680000D01*
X116180000Y-60670000D01*
X116110000Y-60670000D01*
X115770000Y-60670000D01*
X115700000Y-60670000D01*
X115660000Y-60710000D01*
X115650000Y-60780000D01*
X115430000Y-60760000D01*
X115420000Y-60700000D01*
X115360000Y-60670000D01*
X114750000Y-60670000D01*
X114680000Y-60670000D01*
X114620000Y-60690000D01*
X114570000Y-60730000D01*
X114540000Y-60790000D01*
X114520000Y-60860000D01*
X114520000Y-60920000D01*
X114520000Y-60990000D01*
X114530000Y-61060000D01*
X114560000Y-61120000D01*
X114600000Y-61170000D01*
X114650000Y-61220000D01*
X114710000Y-61250000D01*
X114770000Y-61270000D01*
X114820000Y-61280000D01*
X114520000Y-61550000D01*
X114510000Y-61570000D01*
X114280000Y-61520000D01*
X114280000Y-61450000D01*
X114280000Y-60770000D01*
X114270000Y-60710000D01*
X114220000Y-60670000D01*
X114150000Y-60670000D01*
X113750000Y-60670000D01*
X113680000Y-60670000D01*
X113610000Y-60690000D01*
X113550000Y-60720000D01*
X113500000Y-60760000D01*
X113450000Y-60800000D01*
X113420000Y-60860000D01*
X113390000Y-60920000D01*
X113380000Y-60990000D01*
X113370000Y-61060000D01*
X113370000Y-61190000D01*
X113380000Y-61260000D01*
X113390000Y-61330000D01*
X113420000Y-61390000D01*
X113460000Y-61450000D01*
X113510000Y-61490000D01*
X113560000Y-61530000D01*
X113630000Y-61560000D01*
X113690000Y-61570000D01*
X113760000Y-61570000D01*
X114170000Y-61570000D01*
X114230000Y-61570000D01*
X114280000Y-61520000D01*
X114510000Y-61570000D01*
X114710000Y-61570000D01*
X114770000Y-61540000D01*
X115080000Y-61280000D01*
X115140000Y-61280000D01*
X115200000Y-61270000D01*
X115200000Y-61130000D01*
X115150000Y-61110000D01*
X114880000Y-61110000D01*
X114810000Y-61110000D01*
X114750000Y-61090000D01*
X114700000Y-61040000D01*
X114690000Y-60980000D01*
X114690000Y-60910000D01*
X114690000Y-60840000D01*
X114750000Y-60830000D01*
X115230000Y-60830000D01*
X115260000Y-60860000D01*
X115260000Y-61540000D01*
X115300000Y-61570000D01*
X115430000Y-61570000D01*
X115430000Y-61510000D01*
X115430000Y-60760000D01*
X115650000Y-60780000D01*
X115650000Y-61530000D01*
X115670000Y-61570000D01*
X115800000Y-61570000D01*
X115810000Y-61510000D01*
X115810000Y-61380000D01*
X115850000Y-61350000D01*
X116390000Y-61350000D01*
X116390000Y-61550000D01*
X116440000Y-61570000D01*
X116510000Y-61570000D01*
X116560000Y-61560000D01*
X116560000Y-61150000D01*
X116770000Y-61190000D01*
X116770000Y-61210000D01*
X116780000Y-61280000D01*
X116800000Y-61340000D01*
X116830000Y-61410000D01*
X116870000Y-61460000D01*
X116920000Y-61500000D01*
X116980000Y-61540000D01*
X117040000Y-61560000D01*
X117110000Y-61570000D01*
X117180000Y-61570000D01*
X117380000Y-61570000D01*
X117450000Y-61570000D01*
X117510000Y-61550000D01*
X117580000Y-61530000D01*
X117630000Y-61490000D01*
X117680000Y-61440000D01*
X117710000Y-61380000D01*
X117740000Y-61320000D01*
X117750000Y-61250000D01*
X117940000Y-61290000D01*
X117930000Y-61360000D01*
X117940000Y-61430000D01*
X117970000Y-61490000D01*
X118010000Y-61540000D01*
X118070000Y-61570000D01*
X118140000Y-61570000D01*
X118750000Y-61570000D01*
X118810000Y-61550000D01*
X118840000Y-61490000D01*
X118840000Y-60750000D01*
X118820000Y-60690000D01*
X118940000Y-60420000D01*
X118960000Y-60420000D01*
G37*
X118960000Y-60420000D02*
X119240000Y-60420000D01*
X119270000Y-60450000D01*
X119270000Y-61740000D01*
X119240000Y-61780000D01*
X112950000Y-61780000D01*
X112930000Y-61730000D01*
X112930000Y-60440000D01*
X112980000Y-60420000D01*
X118930000Y-60420000D01*
X118810000Y-60690000D01*
X118750000Y-60670000D01*
X118210000Y-60670000D01*
X118150000Y-60670000D01*
X118080000Y-60700000D01*
X118040000Y-60750000D01*
X118010000Y-60810000D01*
X118010000Y-60880000D01*
X118010000Y-60940000D01*
X118030000Y-61010000D01*
X118060000Y-61070000D01*
X118030000Y-61110000D01*
X117980000Y-61160000D01*
X117950000Y-61220000D01*
X117940000Y-61290000D01*
X117750000Y-61250000D01*
X117760000Y-61180000D01*
X117750000Y-60980000D01*
X117740000Y-60910000D01*
X117720000Y-60850000D01*
X117690000Y-60790000D01*
X117650000Y-60740000D01*
X117590000Y-60700000D01*
X117530000Y-60670000D01*
X117470000Y-60650000D01*
X117400000Y-60640000D01*
X117130000Y-60640000D01*
X117060000Y-60650000D01*
X117000000Y-60670000D01*
X116940000Y-60700000D01*
X116880000Y-60740000D01*
X116840000Y-60790000D01*
X116810000Y-60850000D01*
X116790000Y-60910000D01*
X116780000Y-60980000D01*
X116770000Y-61180000D01*
X116560000Y-61150000D01*
X116560000Y-61080000D01*
X116550000Y-61010000D01*
X116530000Y-60950000D01*
X116500000Y-60890000D01*
X116460000Y-60830000D01*
X116420000Y-60780000D01*
X116370000Y-60740000D01*
X116310000Y-60710000D01*
X116250000Y-60680000D01*
X116180000Y-60670000D01*
X116110000Y-60670000D01*
X115770000Y-60670000D01*
X115700000Y-60670000D01*
X115660000Y-60710000D01*
X115650000Y-60780000D01*
X115430000Y-60760000D01*
X115420000Y-60700000D01*
X115360000Y-60670000D01*
X114750000Y-60670000D01*
X114680000Y-60670000D01*
X114620000Y-60690000D01*
X114570000Y-60730000D01*
X114540000Y-60790000D01*
X114520000Y-60860000D01*
X114520000Y-60920000D01*
X114520000Y-60990000D01*
X114530000Y-61060000D01*
X114560000Y-61120000D01*
X114600000Y-61170000D01*
X114650000Y-61220000D01*
X114710000Y-61250000D01*
X114770000Y-61270000D01*
X114820000Y-61280000D01*
X114520000Y-61550000D01*
X114510000Y-61570000D01*
X114280000Y-61520000D01*
X114280000Y-61450000D01*
X114280000Y-60770000D01*
X114270000Y-60710000D01*
X114220000Y-60670000D01*
X114150000Y-60670000D01*
X113750000Y-60670000D01*
X113680000Y-60670000D01*
X113610000Y-60690000D01*
X113550000Y-60720000D01*
X113500000Y-60760000D01*
X113450000Y-60800000D01*
X113420000Y-60860000D01*
X113390000Y-60920000D01*
X113380000Y-60990000D01*
X113370000Y-61060000D01*
X113370000Y-61190000D01*
X113380000Y-61260000D01*
X113390000Y-61330000D01*
X113420000Y-61390000D01*
X113460000Y-61450000D01*
X113510000Y-61490000D01*
X113560000Y-61530000D01*
X113630000Y-61560000D01*
X113690000Y-61570000D01*
X113760000Y-61570000D01*
X114170000Y-61570000D01*
X114230000Y-61570000D01*
X114280000Y-61520000D01*
X114510000Y-61570000D01*
X114710000Y-61570000D01*
X114770000Y-61540000D01*
X115080000Y-61280000D01*
X115140000Y-61280000D01*
X115200000Y-61270000D01*
X115200000Y-61130000D01*
X115150000Y-61110000D01*
X114880000Y-61110000D01*
X114810000Y-61110000D01*
X114750000Y-61090000D01*
X114700000Y-61040000D01*
X114690000Y-60980000D01*
X114690000Y-60910000D01*
X114690000Y-60840000D01*
X114750000Y-60830000D01*
X115230000Y-60830000D01*
X115260000Y-60860000D01*
X115260000Y-61540000D01*
X115300000Y-61570000D01*
X115430000Y-61570000D01*
X115430000Y-61510000D01*
X115430000Y-60760000D01*
X115650000Y-60780000D01*
X115650000Y-61530000D01*
X115670000Y-61570000D01*
X115800000Y-61570000D01*
X115810000Y-61510000D01*
X115810000Y-61380000D01*
X115850000Y-61350000D01*
X116390000Y-61350000D01*
X116390000Y-61550000D01*
X116440000Y-61570000D01*
X116510000Y-61570000D01*
X116560000Y-61560000D01*
X116560000Y-61150000D01*
X116770000Y-61190000D01*
X116770000Y-61210000D01*
X116780000Y-61280000D01*
X116800000Y-61340000D01*
X116830000Y-61410000D01*
X116870000Y-61460000D01*
X116920000Y-61500000D01*
X116980000Y-61540000D01*
X117040000Y-61560000D01*
X117110000Y-61570000D01*
X117180000Y-61570000D01*
X117380000Y-61570000D01*
X117450000Y-61570000D01*
X117510000Y-61550000D01*
X117580000Y-61530000D01*
X117630000Y-61490000D01*
X117680000Y-61440000D01*
X117710000Y-61380000D01*
X117740000Y-61320000D01*
X117750000Y-61250000D01*
X117940000Y-61290000D01*
X117930000Y-61360000D01*
X117940000Y-61430000D01*
X117970000Y-61490000D01*
X118010000Y-61540000D01*
X118070000Y-61570000D01*
X118140000Y-61570000D01*
X118750000Y-61570000D01*
X118810000Y-61550000D01*
X118840000Y-61490000D01*
X118840000Y-60750000D01*
X118820000Y-60690000D01*
X118940000Y-60420000D01*
X118960000Y-60420000D01*
G36*
X118100000Y-61290000D02*
G01*
X118140000Y-61230000D01*
X118200000Y-61210000D01*
X118270000Y-61200000D01*
X118610000Y-61200000D01*
X118610000Y-61140000D01*
X118610000Y-61070000D01*
X118580000Y-61030000D01*
X118310000Y-61030000D01*
X118240000Y-61020000D01*
X118190000Y-60980000D01*
X118170000Y-60920000D01*
X118170000Y-60850000D01*
X118230000Y-60830000D01*
X118640000Y-60830000D01*
X118680000Y-60860000D01*
X118680000Y-61400000D01*
X118620000Y-61410000D01*
X118150000Y-61410000D01*
X118100000Y-61380000D01*
X118100000Y-61290000D01*
G37*
X118100000Y-61290000D02*
X118140000Y-61230000D01*
X118200000Y-61210000D01*
X118270000Y-61200000D01*
X118610000Y-61200000D01*
X118610000Y-61140000D01*
X118610000Y-61070000D01*
X118580000Y-61030000D01*
X118310000Y-61030000D01*
X118240000Y-61020000D01*
X118190000Y-60980000D01*
X118170000Y-60920000D01*
X118170000Y-60850000D01*
X118230000Y-60830000D01*
X118640000Y-60830000D01*
X118680000Y-60860000D01*
X118680000Y-61400000D01*
X118620000Y-61410000D01*
X118150000Y-61410000D01*
X118100000Y-61380000D01*
X118100000Y-61290000D01*
G36*
X116940000Y-60960000D02*
G01*
X116970000Y-60900000D01*
X117010000Y-60850000D01*
X117070000Y-60820000D01*
X117140000Y-60800000D01*
X117340000Y-60800000D01*
X117410000Y-60800000D01*
X117470000Y-60820000D01*
X117530000Y-60860000D01*
X117570000Y-60910000D01*
X117590000Y-60980000D01*
X117590000Y-61050000D01*
X117590000Y-61180000D01*
X117590000Y-61250000D01*
X117560000Y-61310000D01*
X117520000Y-61360000D01*
X117460000Y-61390000D01*
X117390000Y-61400000D01*
X117190000Y-61400000D01*
X117120000Y-61400000D01*
X117050000Y-61390000D01*
X117000000Y-61350000D01*
X116960000Y-61300000D01*
X116940000Y-61230000D01*
X116940000Y-61160000D01*
X116940000Y-61030000D01*
X116940000Y-60960000D01*
G37*
X116940000Y-60960000D02*
X116970000Y-60900000D01*
X117010000Y-60850000D01*
X117070000Y-60820000D01*
X117140000Y-60800000D01*
X117340000Y-60800000D01*
X117410000Y-60800000D01*
X117470000Y-60820000D01*
X117530000Y-60860000D01*
X117570000Y-60910000D01*
X117590000Y-60980000D01*
X117590000Y-61050000D01*
X117590000Y-61180000D01*
X117590000Y-61250000D01*
X117560000Y-61310000D01*
X117520000Y-61360000D01*
X117460000Y-61390000D01*
X117390000Y-61400000D01*
X117190000Y-61400000D01*
X117120000Y-61400000D01*
X117050000Y-61390000D01*
X117000000Y-61350000D01*
X116960000Y-61300000D01*
X116940000Y-61230000D01*
X116940000Y-61160000D01*
X116940000Y-61030000D01*
X116940000Y-60960000D01*
G36*
X116380000Y-61190000D02*
G01*
X115830000Y-61190000D01*
X115810000Y-61140000D01*
X115810000Y-60870000D01*
X115840000Y-60830000D01*
X116110000Y-60830000D01*
X116170000Y-60840000D01*
X116240000Y-60860000D01*
X116300000Y-60900000D01*
X116340000Y-60940000D01*
X116380000Y-61000000D01*
X116390000Y-61070000D01*
X116390000Y-61140000D01*
X116380000Y-61190000D01*
G37*
X116380000Y-61190000D02*
X115830000Y-61190000D01*
X115810000Y-61140000D01*
X115810000Y-60870000D01*
X115840000Y-60830000D01*
X116110000Y-60830000D01*
X116170000Y-60840000D01*
X116240000Y-60860000D01*
X116300000Y-60900000D01*
X116340000Y-60940000D01*
X116380000Y-61000000D01*
X116390000Y-61070000D01*
X116390000Y-61140000D01*
X116380000Y-61190000D01*
G36*
X113550000Y-60980000D02*
G01*
X113570000Y-60920000D01*
X113620000Y-60870000D01*
X113680000Y-60840000D01*
X113750000Y-60830000D01*
X114090000Y-60830000D01*
X114120000Y-60860000D01*
X114120000Y-61410000D01*
X114060000Y-61410000D01*
X113790000Y-61410000D01*
X113720000Y-61410000D01*
X113650000Y-61390000D01*
X113600000Y-61350000D01*
X113560000Y-61300000D01*
X113540000Y-61230000D01*
X113540000Y-61160000D01*
X113540000Y-61100000D01*
X113550000Y-60980000D01*
G37*
X113550000Y-60980000D02*
X113570000Y-60920000D01*
X113620000Y-60870000D01*
X113680000Y-60840000D01*
X113750000Y-60830000D01*
X114090000Y-60830000D01*
X114120000Y-60860000D01*
X114120000Y-61410000D01*
X114060000Y-61410000D01*
X113790000Y-61410000D01*
X113720000Y-61410000D01*
X113650000Y-61390000D01*
X113600000Y-61350000D01*
X113560000Y-61300000D01*
X113540000Y-61230000D01*
X113540000Y-61160000D01*
X113540000Y-61100000D01*
X113550000Y-60980000D01*
G36*
X118980000Y-59120000D02*
G01*
X119250000Y-59120000D01*
X119270000Y-59170000D01*
X119270000Y-60460000D01*
X119220000Y-60480000D01*
X109670000Y-60480000D01*
X109630000Y-60450000D01*
X109630000Y-59170000D01*
X109650000Y-59120000D01*
X118930000Y-59120000D01*
X118800000Y-59370000D01*
X118730000Y-59370000D01*
X118190000Y-59370000D01*
X118120000Y-59380000D01*
X118060000Y-59410000D01*
X118020000Y-59460000D01*
X118000000Y-59530000D01*
X118000000Y-59600000D01*
X118010000Y-59660000D01*
X118030000Y-59730000D01*
X118060000Y-59790000D01*
X118010000Y-59830000D01*
X117970000Y-59880000D01*
X117940000Y-59940000D01*
X117930000Y-60010000D01*
X117930000Y-60080000D01*
X117940000Y-60140000D01*
X117720000Y-60220000D01*
X117720000Y-59470000D01*
X117720000Y-59410000D01*
X117660000Y-59370000D01*
X117600000Y-59370000D01*
X117060000Y-59370000D01*
X116990000Y-59370000D01*
X116920000Y-59380000D01*
X116870000Y-59420000D01*
X116830000Y-59480000D01*
X116810000Y-59550000D01*
X116570000Y-59470000D01*
X116570000Y-59400000D01*
X116510000Y-59370000D01*
X115770000Y-59370000D01*
X115750000Y-59420000D01*
X115750000Y-59480000D01*
X115770000Y-59530000D01*
X116380000Y-59530000D01*
X116410000Y-59560000D01*
X116410000Y-60040000D01*
X116300000Y-59900000D01*
X116340000Y-59880000D01*
X116340000Y-59740000D01*
X116280000Y-59730000D01*
X115880000Y-59730000D01*
X115820000Y-59740000D01*
X115820000Y-59880000D01*
X115830000Y-59900000D01*
X116300000Y-59900000D01*
X116410000Y-60040000D01*
X116390000Y-60100000D01*
X116320000Y-60110000D01*
X115780000Y-60110000D01*
X115750000Y-60150000D01*
X115750000Y-60210000D01*
X115560000Y-60260000D01*
X115560000Y-59790000D01*
X115550000Y-59720000D01*
X115530000Y-59660000D01*
X115510000Y-59600000D01*
X115470000Y-59540000D01*
X115430000Y-59490000D01*
X115380000Y-59440000D01*
X115320000Y-59410000D01*
X115260000Y-59390000D01*
X115190000Y-59370000D01*
X115120000Y-59370000D01*
X114720000Y-59370000D01*
X114660000Y-59400000D01*
X114650000Y-59470000D01*
X114650000Y-60210000D01*
X114430000Y-60240000D01*
X114430000Y-59430000D01*
X114430000Y-59370000D01*
X114300000Y-59370000D01*
X114260000Y-59400000D01*
X114260000Y-60210000D01*
X114180000Y-59900000D01*
X114200000Y-59860000D01*
X114200000Y-59790000D01*
X114190000Y-59730000D01*
X114130000Y-59730000D01*
X114070000Y-59720000D01*
X113730000Y-59380000D01*
X113670000Y-59370000D01*
X113530000Y-59370000D01*
X113490000Y-59370000D01*
X113240000Y-59500000D01*
X113200000Y-59450000D01*
X113150000Y-59410000D01*
X113090000Y-59370000D01*
X113030000Y-59350000D01*
X112960000Y-59340000D01*
X112890000Y-59340000D01*
X112690000Y-59340000D01*
X112620000Y-59350000D01*
X112560000Y-59360000D01*
X112490000Y-59390000D01*
X112440000Y-59430000D01*
X112390000Y-59480000D01*
X112360000Y-59540000D01*
X112340000Y-59600000D01*
X112320000Y-59670000D01*
X112320000Y-59730000D01*
X112320000Y-59870000D01*
X112110000Y-59840000D01*
X112110000Y-59370000D01*
X111980000Y-59370000D01*
X111940000Y-59400000D01*
X111940000Y-59810000D01*
X111940000Y-59880000D01*
X111920000Y-59940000D01*
X111890000Y-60000000D01*
X111840000Y-60050000D01*
X111780000Y-60080000D01*
X111720000Y-60100000D01*
X111650000Y-60110000D01*
X111380000Y-60110000D01*
X111360000Y-60070000D01*
X111360000Y-59390000D01*
X111310000Y-59370000D01*
X111250000Y-59370000D01*
X111200000Y-59380000D01*
X111040000Y-59410000D01*
X111010000Y-59370000D01*
X110200000Y-59370000D01*
X110150000Y-59380000D01*
X110150000Y-59510000D01*
X110150000Y-59530000D01*
X110480000Y-59530000D01*
X110510000Y-59570000D01*
X110510000Y-60250000D01*
X110550000Y-60270000D01*
X110620000Y-60270000D01*
X110670000Y-60260000D01*
X110670000Y-59580000D01*
X110690000Y-59530000D01*
X111030000Y-59530000D01*
X111040000Y-59480000D01*
X111040000Y-59410000D01*
X111200000Y-59390000D01*
X111200000Y-60130000D01*
X111210000Y-60240000D01*
X111270000Y-60270000D01*
X111680000Y-60270000D01*
X111740000Y-60270000D01*
X111810000Y-60250000D01*
X111870000Y-60230000D01*
X111930000Y-60190000D01*
X111980000Y-60150000D01*
X112030000Y-60100000D01*
X112060000Y-60040000D01*
X112090000Y-59980000D01*
X112100000Y-59910000D01*
X112110000Y-59840000D01*
X112320000Y-59870000D01*
X112320000Y-59900000D01*
X112330000Y-59970000D01*
X112340000Y-60030000D01*
X112370000Y-60090000D01*
X112410000Y-60150000D01*
X112450000Y-60200000D01*
X112510000Y-60230000D01*
X112580000Y-60260000D01*
X112640000Y-60270000D01*
X112710000Y-60270000D01*
X112910000Y-60270000D01*
X112980000Y-60270000D01*
X113050000Y-60260000D01*
X113110000Y-60230000D01*
X113170000Y-60200000D01*
X113220000Y-60150000D01*
X113250000Y-60090000D01*
X113280000Y-60030000D01*
X113300000Y-59970000D01*
X113300000Y-59900000D01*
X113300000Y-59690000D01*
X113290000Y-59630000D01*
X113270000Y-59560000D01*
X113240000Y-59500000D01*
X113490000Y-59380000D01*
X113920000Y-59800000D01*
X113920000Y-59850000D01*
X113480000Y-60270000D01*
X113520000Y-60270000D01*
X113660000Y-60270000D01*
X113720000Y-60270000D01*
X114050000Y-59930000D01*
X114110000Y-59900000D01*
X114180000Y-59900000D01*
X114260000Y-60220000D01*
X114330000Y-60270000D01*
X114400000Y-60270000D01*
X114430000Y-60250000D01*
X114650000Y-60220000D01*
X114660000Y-60270000D01*
X114790000Y-60270000D01*
X114810000Y-60220000D01*
X114810000Y-60090000D01*
X114840000Y-60050000D01*
X115380000Y-60050000D01*
X115390000Y-60110000D01*
X115390000Y-60240000D01*
X115430000Y-60270000D01*
X115500000Y-60270000D01*
X115560000Y-60270000D01*
X115750000Y-60210000D01*
X115790000Y-60270000D01*
X116340000Y-60270000D01*
X116400000Y-60270000D01*
X116460000Y-60240000D01*
X116520000Y-60200000D01*
X116560000Y-60140000D01*
X116570000Y-60080000D01*
X116570000Y-60010000D01*
X116570000Y-59470000D01*
X116810000Y-59550000D01*
X116810000Y-59610000D01*
X116810000Y-59680000D01*
X116820000Y-59750000D01*
X116840000Y-59810000D01*
X116880000Y-59860000D01*
X116930000Y-59910000D01*
X116990000Y-59950000D01*
X117050000Y-59970000D01*
X117120000Y-59980000D01*
X117070000Y-60020000D01*
X116820000Y-60240000D01*
X116790000Y-60270000D01*
X116990000Y-60270000D01*
X117050000Y-60250000D01*
X117360000Y-59990000D01*
X117420000Y-59980000D01*
X117490000Y-59980000D01*
X117490000Y-59840000D01*
X117460000Y-59810000D01*
X117120000Y-59810000D01*
X117050000Y-59790000D01*
X117000000Y-59750000D01*
X116980000Y-59690000D01*
X116980000Y-59550000D01*
X117040000Y-59530000D01*
X117510000Y-59530000D01*
X117560000Y-59550000D01*
X117560000Y-60230000D01*
X117580000Y-60270000D01*
X117710000Y-60270000D01*
X117720000Y-60220000D01*
X117940000Y-60150000D01*
X117970000Y-60200000D01*
X118020000Y-60250000D01*
X118080000Y-60270000D01*
X118150000Y-60270000D01*
X118760000Y-60270000D01*
X118820000Y-60240000D01*
X118840000Y-60170000D01*
X118840000Y-59500000D01*
X118830000Y-59430000D01*
X118800000Y-59380000D01*
X118930000Y-59120000D01*
X118980000Y-59120000D01*
G37*
X118980000Y-59120000D02*
X119250000Y-59120000D01*
X119270000Y-59170000D01*
X119270000Y-60460000D01*
X119220000Y-60480000D01*
X109670000Y-60480000D01*
X109630000Y-60450000D01*
X109630000Y-59170000D01*
X109650000Y-59120000D01*
X118930000Y-59120000D01*
X118800000Y-59370000D01*
X118730000Y-59370000D01*
X118190000Y-59370000D01*
X118120000Y-59380000D01*
X118060000Y-59410000D01*
X118020000Y-59460000D01*
X118000000Y-59530000D01*
X118000000Y-59600000D01*
X118010000Y-59660000D01*
X118030000Y-59730000D01*
X118060000Y-59790000D01*
X118010000Y-59830000D01*
X117970000Y-59880000D01*
X117940000Y-59940000D01*
X117930000Y-60010000D01*
X117930000Y-60080000D01*
X117940000Y-60140000D01*
X117720000Y-60220000D01*
X117720000Y-59470000D01*
X117720000Y-59410000D01*
X117660000Y-59370000D01*
X117600000Y-59370000D01*
X117060000Y-59370000D01*
X116990000Y-59370000D01*
X116920000Y-59380000D01*
X116870000Y-59420000D01*
X116830000Y-59480000D01*
X116810000Y-59550000D01*
X116570000Y-59470000D01*
X116570000Y-59400000D01*
X116510000Y-59370000D01*
X115770000Y-59370000D01*
X115750000Y-59420000D01*
X115750000Y-59480000D01*
X115770000Y-59530000D01*
X116380000Y-59530000D01*
X116410000Y-59560000D01*
X116410000Y-60040000D01*
X116300000Y-59900000D01*
X116340000Y-59880000D01*
X116340000Y-59740000D01*
X116280000Y-59730000D01*
X115880000Y-59730000D01*
X115820000Y-59740000D01*
X115820000Y-59880000D01*
X115830000Y-59900000D01*
X116300000Y-59900000D01*
X116410000Y-60040000D01*
X116390000Y-60100000D01*
X116320000Y-60110000D01*
X115780000Y-60110000D01*
X115750000Y-60150000D01*
X115750000Y-60210000D01*
X115560000Y-60260000D01*
X115560000Y-59790000D01*
X115550000Y-59720000D01*
X115530000Y-59660000D01*
X115510000Y-59600000D01*
X115470000Y-59540000D01*
X115430000Y-59490000D01*
X115380000Y-59440000D01*
X115320000Y-59410000D01*
X115260000Y-59390000D01*
X115190000Y-59370000D01*
X115120000Y-59370000D01*
X114720000Y-59370000D01*
X114660000Y-59400000D01*
X114650000Y-59470000D01*
X114650000Y-60210000D01*
X114430000Y-60240000D01*
X114430000Y-59430000D01*
X114430000Y-59370000D01*
X114300000Y-59370000D01*
X114260000Y-59400000D01*
X114260000Y-60210000D01*
X114180000Y-59900000D01*
X114200000Y-59860000D01*
X114200000Y-59790000D01*
X114190000Y-59730000D01*
X114130000Y-59730000D01*
X114070000Y-59720000D01*
X113730000Y-59380000D01*
X113670000Y-59370000D01*
X113530000Y-59370000D01*
X113490000Y-59370000D01*
X113240000Y-59500000D01*
X113200000Y-59450000D01*
X113150000Y-59410000D01*
X113090000Y-59370000D01*
X113030000Y-59350000D01*
X112960000Y-59340000D01*
X112890000Y-59340000D01*
X112690000Y-59340000D01*
X112620000Y-59350000D01*
X112560000Y-59360000D01*
X112490000Y-59390000D01*
X112440000Y-59430000D01*
X112390000Y-59480000D01*
X112360000Y-59540000D01*
X112340000Y-59600000D01*
X112320000Y-59670000D01*
X112320000Y-59730000D01*
X112320000Y-59870000D01*
X112110000Y-59840000D01*
X112110000Y-59370000D01*
X111980000Y-59370000D01*
X111940000Y-59400000D01*
X111940000Y-59810000D01*
X111940000Y-59880000D01*
X111920000Y-59940000D01*
X111890000Y-60000000D01*
X111840000Y-60050000D01*
X111780000Y-60080000D01*
X111720000Y-60100000D01*
X111650000Y-60110000D01*
X111380000Y-60110000D01*
X111360000Y-60070000D01*
X111360000Y-59390000D01*
X111310000Y-59370000D01*
X111250000Y-59370000D01*
X111200000Y-59380000D01*
X111040000Y-59410000D01*
X111010000Y-59370000D01*
X110200000Y-59370000D01*
X110150000Y-59380000D01*
X110150000Y-59510000D01*
X110150000Y-59530000D01*
X110480000Y-59530000D01*
X110510000Y-59570000D01*
X110510000Y-60250000D01*
X110550000Y-60270000D01*
X110620000Y-60270000D01*
X110670000Y-60260000D01*
X110670000Y-59580000D01*
X110690000Y-59530000D01*
X111030000Y-59530000D01*
X111040000Y-59480000D01*
X111040000Y-59410000D01*
X111200000Y-59390000D01*
X111200000Y-60130000D01*
X111210000Y-60240000D01*
X111270000Y-60270000D01*
X111680000Y-60270000D01*
X111740000Y-60270000D01*
X111810000Y-60250000D01*
X111870000Y-60230000D01*
X111930000Y-60190000D01*
X111980000Y-60150000D01*
X112030000Y-60100000D01*
X112060000Y-60040000D01*
X112090000Y-59980000D01*
X112100000Y-59910000D01*
X112110000Y-59840000D01*
X112320000Y-59870000D01*
X112320000Y-59900000D01*
X112330000Y-59970000D01*
X112340000Y-60030000D01*
X112370000Y-60090000D01*
X112410000Y-60150000D01*
X112450000Y-60200000D01*
X112510000Y-60230000D01*
X112580000Y-60260000D01*
X112640000Y-60270000D01*
X112710000Y-60270000D01*
X112910000Y-60270000D01*
X112980000Y-60270000D01*
X113050000Y-60260000D01*
X113110000Y-60230000D01*
X113170000Y-60200000D01*
X113220000Y-60150000D01*
X113250000Y-60090000D01*
X113280000Y-60030000D01*
X113300000Y-59970000D01*
X113300000Y-59900000D01*
X113300000Y-59690000D01*
X113290000Y-59630000D01*
X113270000Y-59560000D01*
X113240000Y-59500000D01*
X113490000Y-59380000D01*
X113920000Y-59800000D01*
X113920000Y-59850000D01*
X113480000Y-60270000D01*
X113520000Y-60270000D01*
X113660000Y-60270000D01*
X113720000Y-60270000D01*
X114050000Y-59930000D01*
X114110000Y-59900000D01*
X114180000Y-59900000D01*
X114260000Y-60220000D01*
X114330000Y-60270000D01*
X114400000Y-60270000D01*
X114430000Y-60250000D01*
X114650000Y-60220000D01*
X114660000Y-60270000D01*
X114790000Y-60270000D01*
X114810000Y-60220000D01*
X114810000Y-60090000D01*
X114840000Y-60050000D01*
X115380000Y-60050000D01*
X115390000Y-60110000D01*
X115390000Y-60240000D01*
X115430000Y-60270000D01*
X115500000Y-60270000D01*
X115560000Y-60270000D01*
X115750000Y-60210000D01*
X115790000Y-60270000D01*
X116340000Y-60270000D01*
X116400000Y-60270000D01*
X116460000Y-60240000D01*
X116520000Y-60200000D01*
X116560000Y-60140000D01*
X116570000Y-60080000D01*
X116570000Y-60010000D01*
X116570000Y-59470000D01*
X116810000Y-59550000D01*
X116810000Y-59610000D01*
X116810000Y-59680000D01*
X116820000Y-59750000D01*
X116840000Y-59810000D01*
X116880000Y-59860000D01*
X116930000Y-59910000D01*
X116990000Y-59950000D01*
X117050000Y-59970000D01*
X117120000Y-59980000D01*
X117070000Y-60020000D01*
X116820000Y-60240000D01*
X116790000Y-60270000D01*
X116990000Y-60270000D01*
X117050000Y-60250000D01*
X117360000Y-59990000D01*
X117420000Y-59980000D01*
X117490000Y-59980000D01*
X117490000Y-59840000D01*
X117460000Y-59810000D01*
X117120000Y-59810000D01*
X117050000Y-59790000D01*
X117000000Y-59750000D01*
X116980000Y-59690000D01*
X116980000Y-59550000D01*
X117040000Y-59530000D01*
X117510000Y-59530000D01*
X117560000Y-59550000D01*
X117560000Y-60230000D01*
X117580000Y-60270000D01*
X117710000Y-60270000D01*
X117720000Y-60220000D01*
X117940000Y-60150000D01*
X117970000Y-60200000D01*
X118020000Y-60250000D01*
X118080000Y-60270000D01*
X118150000Y-60270000D01*
X118760000Y-60270000D01*
X118820000Y-60240000D01*
X118840000Y-60170000D01*
X118840000Y-59500000D01*
X118830000Y-59430000D01*
X118800000Y-59380000D01*
X118930000Y-59120000D01*
X118980000Y-59120000D01*
G36*
X118090000Y-60040000D02*
G01*
X118110000Y-59970000D01*
X118150000Y-59920000D01*
X118210000Y-59900000D01*
X118550000Y-59900000D01*
X118610000Y-59890000D01*
X118610000Y-59750000D01*
X118560000Y-59730000D01*
X118290000Y-59730000D01*
X118220000Y-59720000D01*
X118180000Y-59660000D01*
X118170000Y-59600000D01*
X118180000Y-59530000D01*
X118240000Y-59530000D01*
X118650000Y-59530000D01*
X118670000Y-59570000D01*
X118670000Y-60050000D01*
X118670000Y-60110000D01*
X118130000Y-60110000D01*
X118090000Y-60060000D01*
X118090000Y-60040000D01*
G37*
X118090000Y-60040000D02*
X118110000Y-59970000D01*
X118150000Y-59920000D01*
X118210000Y-59900000D01*
X118550000Y-59900000D01*
X118610000Y-59890000D01*
X118610000Y-59750000D01*
X118560000Y-59730000D01*
X118290000Y-59730000D01*
X118220000Y-59720000D01*
X118180000Y-59660000D01*
X118170000Y-59600000D01*
X118180000Y-59530000D01*
X118240000Y-59530000D01*
X118650000Y-59530000D01*
X118670000Y-59570000D01*
X118670000Y-60050000D01*
X118670000Y-60110000D01*
X118130000Y-60110000D01*
X118090000Y-60060000D01*
X118090000Y-60040000D01*
G36*
X115390000Y-59890000D02*
G01*
X114840000Y-59890000D01*
X114810000Y-59850000D01*
X114810000Y-59580000D01*
X114830000Y-59530000D01*
X115100000Y-59530000D01*
X115160000Y-59540000D01*
X115230000Y-59550000D01*
X115290000Y-59590000D01*
X115340000Y-59630000D01*
X115370000Y-59690000D01*
X115390000Y-59760000D01*
X115390000Y-59830000D01*
X115390000Y-59890000D01*
G37*
X115390000Y-59890000D02*
X114840000Y-59890000D01*
X114810000Y-59850000D01*
X114810000Y-59580000D01*
X114830000Y-59530000D01*
X115100000Y-59530000D01*
X115160000Y-59540000D01*
X115230000Y-59550000D01*
X115290000Y-59590000D01*
X115340000Y-59630000D01*
X115370000Y-59690000D01*
X115390000Y-59760000D01*
X115390000Y-59830000D01*
X115390000Y-59890000D01*
G36*
X112490000Y-59670000D02*
G01*
X112510000Y-59610000D01*
X112550000Y-59560000D01*
X112600000Y-59520000D01*
X112670000Y-59500000D01*
X112740000Y-59500000D01*
X112940000Y-59500000D01*
X113010000Y-59520000D01*
X113070000Y-59550000D01*
X113110000Y-59600000D01*
X113130000Y-59660000D01*
X113140000Y-59730000D01*
X113140000Y-59870000D01*
X113140000Y-59940000D01*
X113110000Y-60000000D01*
X113080000Y-60050000D01*
X113020000Y-60090000D01*
X112950000Y-60100000D01*
X112880000Y-60100000D01*
X112680000Y-60100000D01*
X112610000Y-60090000D01*
X112550000Y-60060000D01*
X112510000Y-60010000D01*
X112490000Y-59950000D01*
X112480000Y-59880000D01*
X112480000Y-59740000D01*
X112490000Y-59670000D01*
G37*
X112490000Y-59670000D02*
X112510000Y-59610000D01*
X112550000Y-59560000D01*
X112600000Y-59520000D01*
X112670000Y-59500000D01*
X112740000Y-59500000D01*
X112940000Y-59500000D01*
X113010000Y-59520000D01*
X113070000Y-59550000D01*
X113110000Y-59600000D01*
X113130000Y-59660000D01*
X113140000Y-59730000D01*
X113140000Y-59870000D01*
X113140000Y-59940000D01*
X113110000Y-60000000D01*
X113080000Y-60050000D01*
X113020000Y-60090000D01*
X112950000Y-60100000D01*
X112880000Y-60100000D01*
X112680000Y-60100000D01*
X112610000Y-60090000D01*
X112550000Y-60060000D01*
X112510000Y-60010000D01*
X112490000Y-59950000D01*
X112480000Y-59880000D01*
X112480000Y-59740000D01*
X112490000Y-59670000D01*
G36*
X118930000Y-57820000D02*
G01*
X119200000Y-57820000D01*
X119260000Y-57830000D01*
X119260000Y-59120000D01*
X119250000Y-59180000D01*
X107200000Y-59180000D01*
X107140000Y-59170000D01*
X107140000Y-57890000D01*
X107140000Y-57820000D01*
X118920000Y-57820000D01*
X118740000Y-58110000D01*
X118680000Y-58080000D01*
X118610000Y-58070000D01*
X118070000Y-58070000D01*
X118040000Y-58100000D01*
X118040000Y-58170000D01*
X118040000Y-58230000D01*
X118580000Y-58230000D01*
X118650000Y-58240000D01*
X118690000Y-58290000D01*
X118700000Y-58360000D01*
X118670000Y-58410000D01*
X118600000Y-58430000D01*
X118260000Y-58430000D01*
X118200000Y-58440000D01*
X118130000Y-58450000D01*
X118070000Y-58480000D01*
X118020000Y-58520000D01*
X117980000Y-58580000D01*
X117960000Y-58640000D01*
X117960000Y-58720000D01*
X117960000Y-58780000D01*
X117980000Y-58840000D01*
X117720000Y-58940000D01*
X117720000Y-58130000D01*
X117710000Y-58070000D01*
X117580000Y-58070000D01*
X117550000Y-58110000D01*
X117550000Y-58920000D01*
X117350000Y-58930000D01*
X117350000Y-58110000D01*
X117320000Y-58060000D01*
X117250000Y-58040000D01*
X117200000Y-58070000D01*
X116820000Y-58720000D01*
X116790000Y-58690000D01*
X116450000Y-58100000D01*
X116410000Y-58050000D01*
X116340000Y-58040000D01*
X116290000Y-58080000D01*
X116280000Y-58150000D01*
X116280000Y-58960000D01*
X116080000Y-58930000D01*
X116080000Y-58320000D01*
X116080000Y-58250000D01*
X116060000Y-58190000D01*
X116020000Y-58130000D01*
X115960000Y-58090000D01*
X115900000Y-58070000D01*
X115830000Y-58070000D01*
X115490000Y-58070000D01*
X115420000Y-58070000D01*
X115360000Y-58090000D01*
X115300000Y-58120000D01*
X115250000Y-58160000D01*
X115210000Y-58220000D01*
X114970000Y-58120000D01*
X114960000Y-58070000D01*
X114820000Y-58070000D01*
X114800000Y-58110000D01*
X114800000Y-58790000D01*
X114750000Y-58810000D01*
X114140000Y-58810000D01*
X114130000Y-58860000D01*
X113910000Y-58820000D01*
X113920000Y-58750000D01*
X113920000Y-58140000D01*
X113900000Y-58080000D01*
X113840000Y-58070000D01*
X113160000Y-58070000D01*
X113100000Y-58070000D01*
X112580000Y-58110000D01*
X112550000Y-58070000D01*
X112410000Y-58070000D01*
X112410000Y-58130000D01*
X112410000Y-58540000D01*
X112400000Y-58600000D01*
X112370000Y-58670000D01*
X112340000Y-58720000D01*
X112280000Y-58760000D01*
X112220000Y-58790000D01*
X112160000Y-58810000D01*
X112090000Y-58810000D01*
X111890000Y-58810000D01*
X111830000Y-58810000D01*
X111830000Y-58130000D01*
X111820000Y-58070000D01*
X111680000Y-58070000D01*
X111660000Y-58110000D01*
X111660000Y-58860000D01*
X111470000Y-58870000D01*
X111460000Y-58810000D01*
X110850000Y-58810000D01*
X110780000Y-58800000D01*
X110740000Y-58750000D01*
X110730000Y-58690000D01*
X110760000Y-58630000D01*
X110820000Y-58600000D01*
X111220000Y-58600000D01*
X111290000Y-58590000D01*
X111350000Y-58560000D01*
X111400000Y-58520000D01*
X111440000Y-58460000D01*
X111470000Y-58400000D01*
X111470000Y-58330000D01*
X111470000Y-58260000D01*
X111440000Y-58200000D01*
X111400000Y-58140000D01*
X111350000Y-58100000D01*
X111290000Y-58080000D01*
X111220000Y-58070000D01*
X110680000Y-58070000D01*
X110650000Y-58100000D01*
X110650000Y-58170000D01*
X110660000Y-58230000D01*
X111200000Y-58230000D01*
X111260000Y-58240000D01*
X111300000Y-58290000D01*
X111310000Y-58360000D01*
X111270000Y-58410000D01*
X111210000Y-58430000D01*
X110870000Y-58430000D01*
X110800000Y-58440000D01*
X110740000Y-58460000D01*
X110680000Y-58480000D01*
X110620000Y-58530000D01*
X110590000Y-58580000D01*
X110570000Y-58650000D01*
X110570000Y-58720000D01*
X110570000Y-58790000D01*
X110330000Y-58840000D01*
X110330000Y-58160000D01*
X110310000Y-58100000D01*
X110260000Y-58070000D01*
X109710000Y-58070000D01*
X109650000Y-58070000D01*
X109580000Y-58090000D01*
X109530000Y-58140000D01*
X109500000Y-58200000D01*
X109490000Y-58270000D01*
X109500000Y-58330000D01*
X109510000Y-58400000D01*
X109540000Y-58460000D01*
X109530000Y-58500000D01*
X109480000Y-58550000D01*
X109440000Y-58610000D01*
X109430000Y-58670000D01*
X109230000Y-58600000D01*
X109240000Y-58540000D01*
X109240000Y-58480000D01*
X109190000Y-58450000D01*
X108650000Y-58450000D01*
X108430000Y-58280000D01*
X108420000Y-58220000D01*
X108390000Y-58160000D01*
X108340000Y-58110000D01*
X108280000Y-58080000D01*
X108220000Y-58070000D01*
X107610000Y-58070000D01*
X107600000Y-58130000D01*
X107600000Y-58190000D01*
X107630000Y-58230000D01*
X108170000Y-58230000D01*
X108240000Y-58240000D01*
X108260000Y-58300000D01*
X108260000Y-58710000D01*
X108260000Y-58770000D01*
X108210000Y-58810000D01*
X107660000Y-58810000D01*
X107600000Y-58820000D01*
X107600000Y-58950000D01*
X107600000Y-58970000D01*
X108210000Y-58970000D01*
X108270000Y-58960000D01*
X108330000Y-58930000D01*
X108380000Y-58890000D01*
X108420000Y-58830000D01*
X108430000Y-58760000D01*
X108430000Y-58290000D01*
X108650000Y-58450000D01*
X108640000Y-58510000D01*
X108640000Y-58580000D01*
X108690000Y-58600000D01*
X109230000Y-58600000D01*
X109430000Y-58680000D01*
X109420000Y-58740000D01*
X109420000Y-58810000D01*
X109450000Y-58880000D01*
X109490000Y-58930000D01*
X109550000Y-58960000D01*
X109610000Y-58970000D01*
X110220000Y-58970000D01*
X110290000Y-58960000D01*
X110330000Y-58910000D01*
X110330000Y-58840000D01*
X110570000Y-58790000D01*
X110600000Y-58850000D01*
X110640000Y-58900000D01*
X110700000Y-58940000D01*
X110760000Y-58960000D01*
X110830000Y-58970000D01*
X111430000Y-58970000D01*
X111470000Y-58940000D01*
X111470000Y-58870000D01*
X111660000Y-58860000D01*
X111660000Y-58910000D01*
X111700000Y-58960000D01*
X111770000Y-58970000D01*
X112100000Y-58970000D01*
X112170000Y-58970000D01*
X112240000Y-58960000D01*
X112300000Y-58940000D01*
X112360000Y-58910000D01*
X112420000Y-58870000D01*
X112470000Y-58830000D01*
X112510000Y-58770000D01*
X112540000Y-58710000D01*
X112560000Y-58650000D01*
X112570000Y-58580000D01*
X112580000Y-58510000D01*
X112580000Y-58110000D01*
X113100000Y-58080000D01*
X113100000Y-58210000D01*
X113150000Y-58230000D01*
X113760000Y-58230000D01*
X113760000Y-58290000D01*
X113760000Y-58700000D01*
X113680000Y-58600000D01*
X113690000Y-58550000D01*
X113690000Y-58480000D01*
X113680000Y-58430000D01*
X113200000Y-58430000D01*
X113170000Y-58470000D01*
X113170000Y-58540000D01*
X113210000Y-58600000D01*
X113680000Y-58600000D01*
X113760000Y-58700000D01*
X113760000Y-58770000D01*
X113720000Y-58810000D01*
X113650000Y-58810000D01*
X113110000Y-58810000D01*
X113100000Y-58870000D01*
X113100000Y-58940000D01*
X113100000Y-58970000D01*
X113710000Y-58970000D01*
X113780000Y-58960000D01*
X113840000Y-58930000D01*
X113890000Y-58880000D01*
X113910000Y-58820000D01*
X114130000Y-58870000D01*
X114130000Y-58930000D01*
X114160000Y-58970000D01*
X114840000Y-58970000D01*
X114900000Y-58970000D01*
X114960000Y-58930000D01*
X114970000Y-58870000D01*
X114970000Y-58120000D01*
X115210000Y-58220000D01*
X115180000Y-58280000D01*
X115170000Y-58350000D01*
X115170000Y-58410000D01*
X115170000Y-58470000D01*
X115180000Y-58540000D01*
X115210000Y-58600000D01*
X115250000Y-58660000D01*
X115300000Y-58700000D01*
X115360000Y-58730000D01*
X115430000Y-58750000D01*
X115490000Y-58750000D01*
X115830000Y-58750000D01*
X115850000Y-58700000D01*
X115850000Y-58630000D01*
X115820000Y-58590000D01*
X115490000Y-58590000D01*
X115420000Y-58570000D01*
X115360000Y-58530000D01*
X115340000Y-58470000D01*
X115330000Y-58410000D01*
X115340000Y-58340000D01*
X115370000Y-58280000D01*
X115420000Y-58240000D01*
X115490000Y-58230000D01*
X115830000Y-58230000D01*
X115890000Y-58240000D01*
X115920000Y-58300000D01*
X115920000Y-58910000D01*
X115920000Y-58970000D01*
X116060000Y-58970000D01*
X116080000Y-58930000D01*
X116280000Y-58960000D01*
X116320000Y-58960000D01*
X116450000Y-58960000D01*
X116450000Y-58420000D01*
X116720000Y-58890000D01*
X116750000Y-58950000D01*
X116810000Y-58970000D01*
X116870000Y-58950000D01*
X116910000Y-58890000D01*
X117180000Y-58420000D01*
X117180000Y-58960000D01*
X117310000Y-58960000D01*
X117340000Y-58930000D01*
X117550000Y-58920000D01*
X117610000Y-58970000D01*
X117680000Y-58970000D01*
X117720000Y-58940000D01*
X117990000Y-58850000D01*
X118030000Y-58900000D01*
X118080000Y-58940000D01*
X118140000Y-58960000D01*
X118210000Y-58970000D01*
X118820000Y-58970000D01*
X118860000Y-58940000D01*
X118860000Y-58870000D01*
X118850000Y-58810000D01*
X118240000Y-58810000D01*
X118170000Y-58800000D01*
X118130000Y-58760000D01*
X118120000Y-58690000D01*
X118140000Y-58630000D01*
X118200000Y-58600000D01*
X118610000Y-58600000D01*
X118680000Y-58590000D01*
X118740000Y-58560000D01*
X118790000Y-58520000D01*
X118830000Y-58460000D01*
X118850000Y-58410000D01*
X118860000Y-58330000D01*
X118860000Y-58260000D01*
X118830000Y-58200000D01*
X118790000Y-58150000D01*
X118740000Y-58110000D01*
X118920000Y-57820000D01*
X118930000Y-57820000D01*
G37*
X118930000Y-57820000D02*
X119200000Y-57820000D01*
X119260000Y-57830000D01*
X119260000Y-59120000D01*
X119250000Y-59180000D01*
X107200000Y-59180000D01*
X107140000Y-59170000D01*
X107140000Y-57890000D01*
X107140000Y-57820000D01*
X118920000Y-57820000D01*
X118740000Y-58110000D01*
X118680000Y-58080000D01*
X118610000Y-58070000D01*
X118070000Y-58070000D01*
X118040000Y-58100000D01*
X118040000Y-58170000D01*
X118040000Y-58230000D01*
X118580000Y-58230000D01*
X118650000Y-58240000D01*
X118690000Y-58290000D01*
X118700000Y-58360000D01*
X118670000Y-58410000D01*
X118600000Y-58430000D01*
X118260000Y-58430000D01*
X118200000Y-58440000D01*
X118130000Y-58450000D01*
X118070000Y-58480000D01*
X118020000Y-58520000D01*
X117980000Y-58580000D01*
X117960000Y-58640000D01*
X117960000Y-58720000D01*
X117960000Y-58780000D01*
X117980000Y-58840000D01*
X117720000Y-58940000D01*
X117720000Y-58130000D01*
X117710000Y-58070000D01*
X117580000Y-58070000D01*
X117550000Y-58110000D01*
X117550000Y-58920000D01*
X117350000Y-58930000D01*
X117350000Y-58110000D01*
X117320000Y-58060000D01*
X117250000Y-58040000D01*
X117200000Y-58070000D01*
X116820000Y-58720000D01*
X116790000Y-58690000D01*
X116450000Y-58100000D01*
X116410000Y-58050000D01*
X116340000Y-58040000D01*
X116290000Y-58080000D01*
X116280000Y-58150000D01*
X116280000Y-58960000D01*
X116080000Y-58930000D01*
X116080000Y-58320000D01*
X116080000Y-58250000D01*
X116060000Y-58190000D01*
X116020000Y-58130000D01*
X115960000Y-58090000D01*
X115900000Y-58070000D01*
X115830000Y-58070000D01*
X115490000Y-58070000D01*
X115420000Y-58070000D01*
X115360000Y-58090000D01*
X115300000Y-58120000D01*
X115250000Y-58160000D01*
X115210000Y-58220000D01*
X114970000Y-58120000D01*
X114960000Y-58070000D01*
X114820000Y-58070000D01*
X114800000Y-58110000D01*
X114800000Y-58790000D01*
X114750000Y-58810000D01*
X114140000Y-58810000D01*
X114130000Y-58860000D01*
X113910000Y-58820000D01*
X113920000Y-58750000D01*
X113920000Y-58140000D01*
X113900000Y-58080000D01*
X113840000Y-58070000D01*
X113160000Y-58070000D01*
X113100000Y-58070000D01*
X112580000Y-58110000D01*
X112550000Y-58070000D01*
X112410000Y-58070000D01*
X112410000Y-58130000D01*
X112410000Y-58540000D01*
X112400000Y-58600000D01*
X112370000Y-58670000D01*
X112340000Y-58720000D01*
X112280000Y-58760000D01*
X112220000Y-58790000D01*
X112160000Y-58810000D01*
X112090000Y-58810000D01*
X111890000Y-58810000D01*
X111830000Y-58810000D01*
X111830000Y-58130000D01*
X111820000Y-58070000D01*
X111680000Y-58070000D01*
X111660000Y-58110000D01*
X111660000Y-58860000D01*
X111470000Y-58870000D01*
X111460000Y-58810000D01*
X110850000Y-58810000D01*
X110780000Y-58800000D01*
X110740000Y-58750000D01*
X110730000Y-58690000D01*
X110760000Y-58630000D01*
X110820000Y-58600000D01*
X111220000Y-58600000D01*
X111290000Y-58590000D01*
X111350000Y-58560000D01*
X111400000Y-58520000D01*
X111440000Y-58460000D01*
X111470000Y-58400000D01*
X111470000Y-58330000D01*
X111470000Y-58260000D01*
X111440000Y-58200000D01*
X111400000Y-58140000D01*
X111350000Y-58100000D01*
X111290000Y-58080000D01*
X111220000Y-58070000D01*
X110680000Y-58070000D01*
X110650000Y-58100000D01*
X110650000Y-58170000D01*
X110660000Y-58230000D01*
X111200000Y-58230000D01*
X111260000Y-58240000D01*
X111300000Y-58290000D01*
X111310000Y-58360000D01*
X111270000Y-58410000D01*
X111210000Y-58430000D01*
X110870000Y-58430000D01*
X110800000Y-58440000D01*
X110740000Y-58460000D01*
X110680000Y-58480000D01*
X110620000Y-58530000D01*
X110590000Y-58580000D01*
X110570000Y-58650000D01*
X110570000Y-58720000D01*
X110570000Y-58790000D01*
X110330000Y-58840000D01*
X110330000Y-58160000D01*
X110310000Y-58100000D01*
X110260000Y-58070000D01*
X109710000Y-58070000D01*
X109650000Y-58070000D01*
X109580000Y-58090000D01*
X109530000Y-58140000D01*
X109500000Y-58200000D01*
X109490000Y-58270000D01*
X109500000Y-58330000D01*
X109510000Y-58400000D01*
X109540000Y-58460000D01*
X109530000Y-58500000D01*
X109480000Y-58550000D01*
X109440000Y-58610000D01*
X109430000Y-58670000D01*
X109230000Y-58600000D01*
X109240000Y-58540000D01*
X109240000Y-58480000D01*
X109190000Y-58450000D01*
X108650000Y-58450000D01*
X108430000Y-58280000D01*
X108420000Y-58220000D01*
X108390000Y-58160000D01*
X108340000Y-58110000D01*
X108280000Y-58080000D01*
X108220000Y-58070000D01*
X107610000Y-58070000D01*
X107600000Y-58130000D01*
X107600000Y-58190000D01*
X107630000Y-58230000D01*
X108170000Y-58230000D01*
X108240000Y-58240000D01*
X108260000Y-58300000D01*
X108260000Y-58710000D01*
X108260000Y-58770000D01*
X108210000Y-58810000D01*
X107660000Y-58810000D01*
X107600000Y-58820000D01*
X107600000Y-58950000D01*
X107600000Y-58970000D01*
X108210000Y-58970000D01*
X108270000Y-58960000D01*
X108330000Y-58930000D01*
X108380000Y-58890000D01*
X108420000Y-58830000D01*
X108430000Y-58760000D01*
X108430000Y-58290000D01*
X108650000Y-58450000D01*
X108640000Y-58510000D01*
X108640000Y-58580000D01*
X108690000Y-58600000D01*
X109230000Y-58600000D01*
X109430000Y-58680000D01*
X109420000Y-58740000D01*
X109420000Y-58810000D01*
X109450000Y-58880000D01*
X109490000Y-58930000D01*
X109550000Y-58960000D01*
X109610000Y-58970000D01*
X110220000Y-58970000D01*
X110290000Y-58960000D01*
X110330000Y-58910000D01*
X110330000Y-58840000D01*
X110570000Y-58790000D01*
X110600000Y-58850000D01*
X110640000Y-58900000D01*
X110700000Y-58940000D01*
X110760000Y-58960000D01*
X110830000Y-58970000D01*
X111430000Y-58970000D01*
X111470000Y-58940000D01*
X111470000Y-58870000D01*
X111660000Y-58860000D01*
X111660000Y-58910000D01*
X111700000Y-58960000D01*
X111770000Y-58970000D01*
X112100000Y-58970000D01*
X112170000Y-58970000D01*
X112240000Y-58960000D01*
X112300000Y-58940000D01*
X112360000Y-58910000D01*
X112420000Y-58870000D01*
X112470000Y-58830000D01*
X112510000Y-58770000D01*
X112540000Y-58710000D01*
X112560000Y-58650000D01*
X112570000Y-58580000D01*
X112580000Y-58510000D01*
X112580000Y-58110000D01*
X113100000Y-58080000D01*
X113100000Y-58210000D01*
X113150000Y-58230000D01*
X113760000Y-58230000D01*
X113760000Y-58290000D01*
X113760000Y-58700000D01*
X113680000Y-58600000D01*
X113690000Y-58550000D01*
X113690000Y-58480000D01*
X113680000Y-58430000D01*
X113200000Y-58430000D01*
X113170000Y-58470000D01*
X113170000Y-58540000D01*
X113210000Y-58600000D01*
X113680000Y-58600000D01*
X113760000Y-58700000D01*
X113760000Y-58770000D01*
X113720000Y-58810000D01*
X113650000Y-58810000D01*
X113110000Y-58810000D01*
X113100000Y-58870000D01*
X113100000Y-58940000D01*
X113100000Y-58970000D01*
X113710000Y-58970000D01*
X113780000Y-58960000D01*
X113840000Y-58930000D01*
X113890000Y-58880000D01*
X113910000Y-58820000D01*
X114130000Y-58870000D01*
X114130000Y-58930000D01*
X114160000Y-58970000D01*
X114840000Y-58970000D01*
X114900000Y-58970000D01*
X114960000Y-58930000D01*
X114970000Y-58870000D01*
X114970000Y-58120000D01*
X115210000Y-58220000D01*
X115180000Y-58280000D01*
X115170000Y-58350000D01*
X115170000Y-58410000D01*
X115170000Y-58470000D01*
X115180000Y-58540000D01*
X115210000Y-58600000D01*
X115250000Y-58660000D01*
X115300000Y-58700000D01*
X115360000Y-58730000D01*
X115430000Y-58750000D01*
X115490000Y-58750000D01*
X115830000Y-58750000D01*
X115850000Y-58700000D01*
X115850000Y-58630000D01*
X115820000Y-58590000D01*
X115490000Y-58590000D01*
X115420000Y-58570000D01*
X115360000Y-58530000D01*
X115340000Y-58470000D01*
X115330000Y-58410000D01*
X115340000Y-58340000D01*
X115370000Y-58280000D01*
X115420000Y-58240000D01*
X115490000Y-58230000D01*
X115830000Y-58230000D01*
X115890000Y-58240000D01*
X115920000Y-58300000D01*
X115920000Y-58910000D01*
X115920000Y-58970000D01*
X116060000Y-58970000D01*
X116080000Y-58930000D01*
X116280000Y-58960000D01*
X116320000Y-58960000D01*
X116450000Y-58960000D01*
X116450000Y-58420000D01*
X116720000Y-58890000D01*
X116750000Y-58950000D01*
X116810000Y-58970000D01*
X116870000Y-58950000D01*
X116910000Y-58890000D01*
X117180000Y-58420000D01*
X117180000Y-58960000D01*
X117310000Y-58960000D01*
X117340000Y-58930000D01*
X117550000Y-58920000D01*
X117610000Y-58970000D01*
X117680000Y-58970000D01*
X117720000Y-58940000D01*
X117990000Y-58850000D01*
X118030000Y-58900000D01*
X118080000Y-58940000D01*
X118140000Y-58960000D01*
X118210000Y-58970000D01*
X118820000Y-58970000D01*
X118860000Y-58940000D01*
X118860000Y-58870000D01*
X118850000Y-58810000D01*
X118240000Y-58810000D01*
X118170000Y-58800000D01*
X118130000Y-58760000D01*
X118120000Y-58690000D01*
X118140000Y-58630000D01*
X118200000Y-58600000D01*
X118610000Y-58600000D01*
X118680000Y-58590000D01*
X118740000Y-58560000D01*
X118790000Y-58520000D01*
X118830000Y-58460000D01*
X118850000Y-58410000D01*
X118860000Y-58330000D01*
X118860000Y-58260000D01*
X118830000Y-58200000D01*
X118790000Y-58150000D01*
X118740000Y-58110000D01*
X118920000Y-57820000D01*
X118930000Y-57820000D01*
G36*
X109590000Y-58700000D02*
G01*
X109620000Y-58640000D01*
X109670000Y-58610000D01*
X109740000Y-58600000D01*
X110080000Y-58600000D01*
X110100000Y-58550000D01*
X110100000Y-58480000D01*
X110080000Y-58430000D01*
X109810000Y-58430000D01*
X109740000Y-58430000D01*
X109690000Y-58390000D01*
X109660000Y-58330000D01*
X109660000Y-58260000D01*
X109700000Y-58230000D01*
X110110000Y-58230000D01*
X110170000Y-58240000D01*
X110170000Y-58780000D01*
X110130000Y-58810000D01*
X109650000Y-58810000D01*
X109590000Y-58790000D01*
X109590000Y-58700000D01*
G37*
X109590000Y-58700000D02*
X109620000Y-58640000D01*
X109670000Y-58610000D01*
X109740000Y-58600000D01*
X110080000Y-58600000D01*
X110100000Y-58550000D01*
X110100000Y-58480000D01*
X110080000Y-58430000D01*
X109810000Y-58430000D01*
X109740000Y-58430000D01*
X109690000Y-58390000D01*
X109660000Y-58330000D01*
X109660000Y-58260000D01*
X109700000Y-58230000D01*
X110110000Y-58230000D01*
X110170000Y-58240000D01*
X110170000Y-58780000D01*
X110130000Y-58810000D01*
X109650000Y-58810000D01*
X109590000Y-58790000D01*
X109590000Y-58700000D01*
D11*
M02*
