G04 #@! TF.GenerationSoftware,KiCad,Pcbnew,(6.0.0)*
G04 #@! TF.CreationDate,2022-02-20T02:17:19+04:00*
G04 #@! TF.ProjectId,USB-C breakout,5553422d-4320-4627-9265-616b6f75742e,rev?*
G04 #@! TF.SameCoordinates,Original*
G04 #@! TF.FileFunction,Copper,L1,Top*
G04 #@! TF.FilePolarity,Positive*
%FSLAX46Y46*%
G04 Gerber Fmt 4.6, Leading zero omitted, Abs format (unit mm)*
G04 Created by KiCad (PCBNEW (6.0.0)) date 2022-02-20 02:17:19*
%MOMM*%
%LPD*%
G01*
G04 APERTURE LIST*
G04 Aperture macros list*
%AMRoundRect*
0 Rectangle with rounded corners*
0 $1 Rounding radius*
0 $2 $3 $4 $5 $6 $7 $8 $9 X,Y pos of 4 corners*
0 Add a 4 corners polygon primitive as box body*
4,1,4,$2,$3,$4,$5,$6,$7,$8,$9,$2,$3,0*
0 Add four circle primitives for the rounded corners*
1,1,$1+$1,$2,$3*
1,1,$1+$1,$4,$5*
1,1,$1+$1,$6,$7*
1,1,$1+$1,$8,$9*
0 Add four rect primitives between the rounded corners*
20,1,$1+$1,$2,$3,$4,$5,0*
20,1,$1+$1,$4,$5,$6,$7,0*
20,1,$1+$1,$6,$7,$8,$9,0*
20,1,$1+$1,$8,$9,$2,$3,0*%
G04 Aperture macros list end*
G04 #@! TA.AperFunction,SMDPad,CuDef*
%ADD10RoundRect,0.250000X-0.450000X0.262500X-0.450000X-0.262500X0.450000X-0.262500X0.450000X0.262500X0*%
G04 #@! TD*
G04 #@! TA.AperFunction,SMDPad,CuDef*
%ADD11RoundRect,0.250000X0.450000X-0.262500X0.450000X0.262500X-0.450000X0.262500X-0.450000X-0.262500X0*%
G04 #@! TD*
G04 #@! TA.AperFunction,ComponentPad*
%ADD12R,1.700000X1.700000*%
G04 #@! TD*
G04 #@! TA.AperFunction,ComponentPad*
%ADD13O,1.700000X1.700000*%
G04 #@! TD*
G04 #@! TA.AperFunction,SMDPad,CuDef*
%ADD14RoundRect,0.243750X0.456250X-0.243750X0.456250X0.243750X-0.456250X0.243750X-0.456250X-0.243750X0*%
G04 #@! TD*
G04 #@! TA.AperFunction,SMDPad,CuDef*
%ADD15RoundRect,0.243750X0.243750X0.456250X-0.243750X0.456250X-0.243750X-0.456250X0.243750X-0.456250X0*%
G04 #@! TD*
G04 #@! TA.AperFunction,SMDPad,CuDef*
%ADD16R,0.600000X1.450000*%
G04 #@! TD*
G04 #@! TA.AperFunction,SMDPad,CuDef*
%ADD17R,0.300000X1.450000*%
G04 #@! TD*
G04 #@! TA.AperFunction,ComponentPad*
%ADD18O,1.000000X2.100000*%
G04 #@! TD*
G04 #@! TA.AperFunction,ComponentPad*
%ADD19O,1.000000X1.600000*%
G04 #@! TD*
G04 #@! TA.AperFunction,ViaPad*
%ADD20C,0.800000*%
G04 #@! TD*
G04 #@! TA.AperFunction,Conductor*
%ADD21C,0.250000*%
G04 #@! TD*
G04 #@! TA.AperFunction,Conductor*
%ADD22C,0.500000*%
G04 #@! TD*
G04 APERTURE END LIST*
D10*
X107850000Y-62437500D03*
X107850000Y-64262500D03*
D11*
X107850000Y-59025000D03*
X107850000Y-60850000D03*
D12*
X116903500Y-66484500D03*
D13*
X114363500Y-66484500D03*
X111823500Y-66484500D03*
X109283500Y-66484500D03*
D14*
X117538500Y-60799500D03*
X117538500Y-62674500D03*
D15*
X113870500Y-61023500D03*
X115745500Y-61023500D03*
D16*
X109841500Y-56985500D03*
X110641500Y-56985500D03*
X115541500Y-56985500D03*
X116341500Y-56985500D03*
X116341500Y-56985500D03*
X115541500Y-56985500D03*
X110641500Y-56985500D03*
X109841500Y-56985500D03*
D17*
X114841500Y-56985500D03*
X114341500Y-56985500D03*
X113841500Y-56985500D03*
X112841500Y-56985500D03*
X112341500Y-56985500D03*
X111841500Y-56985500D03*
X111341500Y-56985500D03*
X113341500Y-56985500D03*
D18*
X108771500Y-56070500D03*
X117411500Y-56070500D03*
D19*
X117411500Y-51890500D03*
X108771500Y-51890500D03*
D20*
X116332000Y-58928000D03*
X109791500Y-58928000D03*
X117202001Y-59327999D03*
X118554500Y-59690000D03*
X109791500Y-60515500D03*
X109791500Y-61976000D03*
X109791500Y-62992000D03*
X111252000Y-58801000D03*
X114244500Y-59507500D03*
X113870500Y-62532500D03*
X114871500Y-58928000D03*
D21*
X106550000Y-63700000D02*
X107112500Y-64262500D01*
X107850000Y-53450000D02*
X106550000Y-54750000D01*
X113400000Y-53450000D02*
X107850000Y-53450000D01*
X107112500Y-64262500D02*
X107850000Y-64262500D01*
X114341500Y-56985500D02*
X114341500Y-54391500D01*
X114341500Y-54391500D02*
X113400000Y-53450000D01*
X106550000Y-54750000D02*
X106550000Y-63700000D01*
X108150000Y-54150000D02*
X107150000Y-55150000D01*
X107150000Y-58325000D02*
X107850000Y-59025000D01*
X110850000Y-54150000D02*
X108150000Y-54150000D01*
X111341500Y-54641500D02*
X110850000Y-54150000D01*
X111341500Y-56985500D02*
X111341500Y-54641500D01*
X107150000Y-55150000D02*
X107150000Y-58325000D01*
D22*
X109457000Y-60850000D02*
X109791500Y-60515500D01*
X107850000Y-60850000D02*
X109457000Y-60850000D01*
X107850000Y-60850000D02*
X107850000Y-62437500D01*
X117314500Y-61023500D02*
X117538500Y-60799500D01*
X115745500Y-61023500D02*
X117314500Y-61023500D01*
X109841500Y-58878000D02*
X109791500Y-58928000D01*
X109841500Y-56985500D02*
X109841500Y-58878000D01*
X116341500Y-58918500D02*
X116332000Y-58928000D01*
X116341500Y-56985500D02*
X116341500Y-58918500D01*
X118024027Y-62188973D02*
X117538500Y-62674500D01*
X116731999Y-59327999D02*
X117202001Y-59327999D01*
X116332000Y-58928000D02*
X116731999Y-59327999D01*
X118745000Y-61468000D02*
X118024027Y-62188973D01*
X118192499Y-59327999D02*
X118554500Y-59690000D01*
X118745000Y-59880500D02*
X118745000Y-61468000D01*
X109791500Y-65976500D02*
X109283500Y-66484500D01*
X109791500Y-58928000D02*
X109791500Y-60515500D01*
X117202001Y-59327999D02*
X118192499Y-59327999D01*
X118554500Y-59690000D02*
X118745000Y-59880500D01*
X109791500Y-60515500D02*
X109791500Y-61976000D01*
X109791500Y-61976000D02*
X109791500Y-62992000D01*
X109791500Y-62992000D02*
X109791500Y-65976500D01*
D21*
X111341500Y-56985500D02*
X111353000Y-56985500D01*
X111353000Y-56985500D02*
X111366499Y-56972001D01*
D22*
X113870500Y-59881500D02*
X113870500Y-61023500D01*
X115541500Y-56985500D02*
X115541500Y-58210500D01*
X115541500Y-58210500D02*
X114879500Y-58872500D01*
X114244500Y-59507500D02*
X113870500Y-59881500D01*
X110641500Y-58190500D02*
X111252000Y-58801000D01*
X110641500Y-56985500D02*
X110641500Y-58190500D01*
X113870500Y-63451500D02*
X116903500Y-66484500D01*
X113870500Y-61023500D02*
X113870500Y-62532500D01*
X113870500Y-62532500D02*
X113870500Y-63451500D01*
X114879500Y-58872500D02*
X114244500Y-59507500D01*
D21*
X112841500Y-56985500D02*
X112841500Y-55560500D01*
X112841500Y-55560500D02*
X113093500Y-55308500D01*
X113093500Y-55308500D02*
X113601500Y-55308500D01*
X113841500Y-55548500D02*
X113841500Y-56985500D01*
X113601500Y-55308500D02*
X113841500Y-55548500D01*
X113513501Y-65634501D02*
X114363500Y-66484500D01*
X112649000Y-64770000D02*
X113513501Y-65634501D01*
X112649000Y-60029998D02*
X112649000Y-64770000D01*
X113841500Y-56985500D02*
X113841500Y-58837498D01*
X113841500Y-58837498D02*
X112649000Y-60029998D01*
X112564500Y-58737500D02*
X112331500Y-58737500D01*
X113341500Y-56985500D02*
X113341500Y-57960500D01*
X113341500Y-57960500D02*
X112564500Y-58737500D01*
X112341500Y-56985500D02*
X112331500Y-58737500D01*
X111950500Y-66357500D02*
X111823500Y-66484500D01*
X112331500Y-58737500D02*
X111950500Y-59118500D01*
X111950500Y-59118500D02*
X111950500Y-66357500D01*
M02*
