G04 #@! TF.GenerationSoftware,KiCad,Pcbnew,(5.1.9)-1*
G04 #@! TF.CreationDate,2021-04-22T03:11:02+04:00*
G04 #@! TF.ProjectId,USB-C breakout,5553422d-4320-4627-9265-616b6f75742e,rev?*
G04 #@! TF.SameCoordinates,Original*
G04 #@! TF.FileFunction,Paste,Top*
G04 #@! TF.FilePolarity,Positive*
%FSLAX46Y46*%
G04 Gerber Fmt 4.6, Leading zero omitted, Abs format (unit mm)*
G04 Created by KiCad (PCBNEW (5.1.9)-1) date 2021-04-22 03:11:02*
%MOMM*%
%LPD*%
G01*
G04 APERTURE LIST*
%ADD10R,0.600000X1.450000*%
%ADD11R,0.300000X1.450000*%
G04 APERTURE END LIST*
G36*
G01*
X117994750Y-61287000D02*
X117082250Y-61287000D01*
G75*
G02*
X116838500Y-61043250I0J243750D01*
G01*
X116838500Y-60555750D01*
G75*
G02*
X117082250Y-60312000I243750J0D01*
G01*
X117994750Y-60312000D01*
G75*
G02*
X118238500Y-60555750I0J-243750D01*
G01*
X118238500Y-61043250D01*
G75*
G02*
X117994750Y-61287000I-243750J0D01*
G01*
G37*
G36*
G01*
X117994750Y-63162000D02*
X117082250Y-63162000D01*
G75*
G02*
X116838500Y-62918250I0J243750D01*
G01*
X116838500Y-62430750D01*
G75*
G02*
X117082250Y-62187000I243750J0D01*
G01*
X117994750Y-62187000D01*
G75*
G02*
X118238500Y-62430750I0J-243750D01*
G01*
X118238500Y-62918250D01*
G75*
G02*
X117994750Y-63162000I-243750J0D01*
G01*
G37*
G36*
G01*
X114358000Y-60567250D02*
X114358000Y-61479750D01*
G75*
G02*
X114114250Y-61723500I-243750J0D01*
G01*
X113626750Y-61723500D01*
G75*
G02*
X113383000Y-61479750I0J243750D01*
G01*
X113383000Y-60567250D01*
G75*
G02*
X113626750Y-60323500I243750J0D01*
G01*
X114114250Y-60323500D01*
G75*
G02*
X114358000Y-60567250I0J-243750D01*
G01*
G37*
G36*
G01*
X116233000Y-60567250D02*
X116233000Y-61479750D01*
G75*
G02*
X115989250Y-61723500I-243750J0D01*
G01*
X115501750Y-61723500D01*
G75*
G02*
X115258000Y-61479750I0J243750D01*
G01*
X115258000Y-60567250D01*
G75*
G02*
X115501750Y-60323500I243750J0D01*
G01*
X115989250Y-60323500D01*
G75*
G02*
X116233000Y-60567250I0J-243750D01*
G01*
G37*
D10*
X109841500Y-56985500D03*
X110641500Y-56985500D03*
X115541500Y-56985500D03*
X116341500Y-56985500D03*
X116341500Y-56985500D03*
X115541500Y-56985500D03*
X110641500Y-56985500D03*
X109841500Y-56985500D03*
D11*
X114841500Y-56985500D03*
X114341500Y-56985500D03*
X113841500Y-56985500D03*
X112841500Y-56985500D03*
X112341500Y-56985500D03*
X111841500Y-56985500D03*
X111341500Y-56985500D03*
X113341500Y-56985500D03*
M02*
