M48
; DRILL file {KiCad (6.0.0)} date Sun Feb 20 02:17:21 2022
; FORMAT={-:-/ absolute / inch / decimal}
; #@! TF.CreationDate,2022-02-20T02:17:21+04:00
; #@! TF.GenerationSoftware,Kicad,Pcbnew,(6.0.0)
; #@! TF.FileFunction,Plated,1,2,PTH
FMAT,2
INCH
; #@! TA.AperFunction,Plated,PTH,ViaDrill
T1C0.0157
; #@! TA.AperFunction,Plated,PTH,ComponentDrill
T2C0.0236
; #@! TA.AperFunction,Plated,PTH,ComponentDrill
T3C0.0394
%
G90
G05
T1
X4.3225Y-2.32
X4.3225Y-2.3825
X4.3225Y-2.44
X4.3225Y-2.48
X4.38Y-2.315
X4.4831Y-2.4619
X4.4978Y-2.3428
X4.5225Y-2.32
X4.58Y-2.32
X4.6143Y-2.3357
X4.6675Y-2.35
T3
X4.3025Y-2.6175
X4.4025Y-2.6175
X4.5025Y-2.6175
X4.6025Y-2.6175
T2
G00X4.2823Y-2.0547
M15
G01X4.2823Y-2.0311
M16
G05
G00X4.2823Y-2.2292
M15
G01X4.2823Y-2.1858
M16
G05
G00X4.6225Y-2.0547
M15
G01X4.6225Y-2.0311
M16
G05
G00X4.6225Y-2.2292
M15
G01X4.6225Y-2.1858
M16
G05
T0
M30
