M48
; DRILL file {KiCad (5.1.9)-1} date 04/22/21 03:11:05
; FORMAT={-:-/ absolute / metric / decimal}
; #@! TF.CreationDate,2021-04-22T03:11:05+04:00
; #@! TF.GenerationSoftware,Kicad,Pcbnew,(5.1.9)-1
; #@! TF.FileFunction,Plated,1,2,PTH
FMAT,2
METRIC
T1C0.400
T2C0.600
T3C1.000
%
G90
G05
T1
X109.791Y-58.928
X109.791Y-60.515
X109.791Y-61.976
X109.791Y-62.992
X111.252Y-58.801
X113.87Y-62.532
X114.244Y-59.508
X114.871Y-58.928
X116.332Y-58.928
X117.202Y-59.328
X118.554Y-59.69
T3
X109.283Y-66.484
X111.823Y-66.484
X114.363Y-66.484
X116.903Y-66.484
T2
G00X108.771Y-52.191
M15
G01X108.771Y-51.59
M16
G05
G00X108.771Y-56.62
M15
G01X108.771Y-55.52
M16
G05
G00X117.411Y-52.191
M15
G01X117.411Y-51.59
M16
G05
G00X117.411Y-56.62
M15
G01X117.411Y-55.52
M16
G05
T0
M30
